<?xml version="1.0" encoding="UTF-8" standalone="no"?>
<svg
   version="1.1"
   width="668.50995"
   height="668.50995"
   id="svg152"
   sodipodi:docname="soundmist_icon.svg"
   inkscape:version="1.1.2 (0a00cf5339, 2022-02-04)"
   xmlns:inkscape="http://www.inkscape.org/namespaces/inkscape"
   xmlns:sodipodi="http://sodipodi.sourceforge.net/DTD/sodipodi-0.dtd"
   xmlns="http://www.w3.org/2000/svg"
   xmlns:svg="http://www.w3.org/2000/svg">
  <defs
     id="defs156" />
  <sodipodi:namedview
     id="namedview154"
     pagecolor="#ffffff"
     bordercolor="#999999"
     borderopacity="1"
     inkscape:pageshadow="0"
     inkscape:pageopacity="0"
     inkscape:pagecheckerboard="0"
     showgrid="false"
     inkscape:zoom="0.35907766"
     inkscape:cx="1193.3352"
     inkscape:cy="460.90308"
     inkscape:window-width="1366"
     inkscape:window-height="696"
     inkscape:window-x="0"
     inkscape:window-y="35"
     inkscape:window-maximized="1"
     inkscape:current-layer="svg152"
     showguides="true"
     inkscape:guide-bbox="true">
    <sodipodi:guide
       position="749.00582,-219.08459"
       orientation="0,-1"
       id="guide5290" />
  </sodipodi:namedview>
  <rect
     style="fill:#000000;stroke-width:109.106;stroke-linecap:round;stroke-linejoin:round;paint-order:stroke fill markers"
     id="rect861"
     width="668.50995"
     height="668.50995"
     x="0"
     y="0"
     ry="148.80585" />
  <g
     id="g1246"
     transform="translate(-209.05527,-49.597345)">
    <path
       d="m 552.76626,101.04864 c 1.00861,0.008 2.01722,0.016 3.0564,0.0242 9.52748,0.1822 18.246,1.49598 26.5686,6.35083 0,0.33 0,0.66 0,1 -0.57106,0.13535 -1.14211,0.2707 -1.73047,0.41016 -12.36146,3.28197 -22.32705,9.53375 -31.26953,18.58984 -0.89525,0.86238 -0.89525,0.86238 -1.80859,1.74219 -5.7537,5.99762 -8.34552,13.65073 -8.69141,21.88281 0.23421,5.48835 1.73983,9.66442 4.5,14.375 0.3777,0.66644 0.75539,1.33289 1.14453,2.01953 10.43442,15.98264 33.91266,22.9091 50.73047,29.35547 16.58047,6.38433 33.07983,13.25111 46.125,25.625 1.17369,1.02287 1.17369,1.02287 2.37109,2.06641 8.9329,8.1797 16.66334,20.43348 17.91065,32.70556 0.12009,3.02044 0.13472,6.01805 0.0933,9.04053 -0.0101,1.06444 -0.0203,2.12889 -0.0308,3.22559 -0.32133,16.24551 -5.51283,29.72242 -16.34424,41.96191 -0.70641,0.80051 -1.41281,1.60102 -2.14063,2.42578 -6.30399,6.71104 -13.37101,11.4862 -21.0625,16.41455 -12.72324,8.21133 -22.67238,16.92343 -26.54296,32.08154 -0.48233,2.35509 -0.90822,4.69957 -1.25391,7.07813 -0.92039,-0.53109 -1.84078,-1.06219 -2.78906,-1.60938 -25.62966,-14.43736 -56.64221,-14.62359 -84.83594,-7.64062 -21.62636,6.20842 -39.99747,16.80756 -56.375,32.25 -0.73863,0.66258 -1.47727,1.32516 -2.23828,2.00781 -15.46767,14.45114 -25.4972,35.00695 -31.76172,54.99219 -0.21173,0.67208 -0.42346,1.34417 -0.6416,2.03662 -9.13402,30.66627 -3.70082,66.06407 10.75293,94.12061 4.46978,8.23606 9.74798,15.76011 15.88867,22.84277 1.01127,1.21043 1.01127,1.21043 2.04297,2.44531 21.24588,24.69012 52.66046,39.69631 84.95703,42.55469 34.00242,2.13521 69.17024,-7.03941 95.20703,-29.76172 2.99843,-2.67815 5.8972,-5.44976 8.79297,-8.23828 0.63293,-0.56977 1.26586,-1.13953 1.91797,-1.72656 18.66141,-17.2873 32.78008,-46.56256 33.99707,-71.89356 0.028,-0.78536 0.0561,-1.57072 0.085,-2.37988 0.0409,-1.04317 0.0819,-2.08635 0.12402,-3.16113 0.49888,-15.05288 0.53276,-29.41968 -4.12402,-43.83887 -0.37004,-1.16233 -0.37004,-1.16233 -0.74756,-2.34814 -5.30341,-16.24871 -12.50598,-30.31517 -23.25248,-43.65186 -0.74379,-0.93586 -1.48758,-1.87172 -2.25391,-2.83594 -3.72627,-4.62705 -7.56708,-9.07142 -11.62109,-13.41406 -5.66191,-6.2943 -7.81487,-11.29521 -7.53125,-19.91016 1.04864,-7.33038 4.92676,-13.57856 10.66797,-18.19531 5.73206,-3.44251 12.13135,-5.48942 18.39111,-7.77392 14.27889,-5.29629 29.29476,-11.38251 36.34717,-25.87061 3.55199,-10.02167 4.59769,-19.37448 4,-30 7.72362,3.16514 12.61161,12.16395 15.96875,19.44531 5.74477,14.23137 5.22073,28.22023 0.0312,42.55469 -2.07881,4.86835 -4.55645,9.52813 -7.05127,14.19287 -7.85153,14.89295 -7.85153,14.89295 -7.21436,31.21729 3.2391,7.21755 8.53108,12.90643 13.69043,18.79199 12.66545,14.45572 23.00762,28.79572 27.5752,47.79785 0.33451,1.22396 0.33451,1.22396 0.67578,2.47266 6.48748,27.84761 -1.53715,59.49462 -16.04297,83.48046 -6.99143,10.99624 -15.67221,20.63544 -24.63281,30.04688 -0.92039,0.98227 -0.92039,0.98227 -1.85938,1.98437 -4.96624,5.15544 -10.47291,9.65649 -16.14062,14.01563 -0.58475,0.45004 -1.1695,0.90009 -1.77197,1.36377 -19.22306,14.59148 -40.87534,24.65236 -62.79541,34.46118 -7.63161,3.42534 -15.16369,6.96908 -22.56543,10.87036 -1.01193,0.53159 -1.01193,0.53159 -2.0443,1.07392 -9.27823,4.96778 -17.81315,11.09094 -26.38539,17.16827 -9.65256,6.80321 -17.82157,7.89054 -29.4375,7.0625 -12.2383,-2.7179 -22.14053,-10.7596 -32.06616,-17.98047 -16.98596,-12.34707 -34.85846,-23.03587 -53.3169,-33.05054 -28.84145,-15.68173 -51.68701,-38.13617 -61.93725,-69.91821 -7.42978,-25.35283 -0.34314,-49.85089 5.94775,-74.5957 1.31184,-5.17489 2.54405,-10.36617 3.75928,-15.56446 3.64471,-15.47192 7.27738,-30.67579 14.61328,-44.89062 0.35562,-0.69916 0.71124,-1.39831 1.07764,-2.11865 23.36742,-45.2802 64.09354,-66.23036 109.67236,-84.13135 19.69316,-7.76906 39.52016,-16.95744 49.12109,-36.91797 3.34831,-8.3996 3.37022,-17.56224 0.0665,-25.95703 -7.78892,-16.73418 -20.92184,-26.60762 -35.5083,-37.12158 -36.79769,-26.5609 -36.79769,-26.5609 -41.4292,-46.75342 -0.44191,-3.71925 -0.52444,-7.38191 -0.5,-11.125 0.005,-1.00829 0.01,-2.01658 0.0151,-3.05542 0.40778,-17.61187 8.44047,-32.18496 20.48486,-44.81958 12.76892,-11.11465 26.35112,-17.61793 43.375,-17.375 z"
       fill="#0B0B0B"
       id="path4"
       style="fill:#fbffff;fill-opacity:1"
       inkscape:export-filename="/home/srklono/Documents/Projects/CSharp/SCPlayer/assets/path50.png"
       inkscape:export-xdpi="150"
       inkscape:export-ydpi="150" />
    <path
       d="m 607.76626,395.42364 c 1.55509,1.31765 3.09686,2.65118 4.625,4 0.84047,0.72059 1.68094,1.44117 2.54687,2.18359 22.16086,19.37397 36.55784,46.67809 38.62159,76.22852 1.35584,28.79617 -6.73496,56.24729 -25.16846,78.58789 -0.91266,1.12342 -0.91266,1.12342 -1.84375,2.26953 -18.01112,21.40867 -46.46827,35.15549 -74.15625,37.73047 -28.87356,1.78647 -59.14878,-4.47952 -81.61719,-23.86328 -0.78633,-0.70512 -1.57265,-1.41024 -2.38281,-2.13672 -0.95133,-0.79793 -1.90266,-1.59586 -2.88281,-2.41797 -19.51601,-16.67103 -32.77547,-42.10411 -36.11719,-67.58203 -0.32349,-5.19018 -0.38993,-10.36482 -0.375,-15.5625 5.4e-4,-0.7106 0.001,-1.42119 0.002,-2.15332 0.0384,-10.92153 0.82362,-20.90122 4.37335,-31.28418 0.30551,-0.97066 0.30551,-0.97066 0.61719,-1.96094 9.33238,-29.61014 29.98517,-51.68884 57.11328,-66.05078 37.21982,-18.81667 83.87085,-13.69486 116.64418,12.01172 z"
       fill="#0A0A0A"
       id="path6"
       style="fill:#fbffff;fill-opacity:1"
       inkscape:export-filename="/home/srklono/Documents/Projects/CSharp/SCPlayer/assets/path50.png"
       inkscape:export-xdpi="150"
       inkscape:export-ydpi="150" />
    <circle
       style="fill:#000000;fill-opacity:1;stroke:none;stroke-width:173.9;stroke-linecap:round;stroke-linejoin:round;paint-order:stroke fill markers"
       id="path2798"
       cx="541.3598"
       cy="484.41034"
       r="36.316525"
       inkscape:export-filename="/home/srklono/Documents/Projects/CSharp/SCPlayer/assets/path50.png"
       inkscape:export-xdpi="150"
       inkscape:export-ydpi="150" />
    <path
       d="m 454.39126,216.42364 c 7.08858,3.30916 13.76424,7.18987 20.46753,11.20239 4.51206,2.67707 9.05061,5.09452 13.78247,7.36011 13.2498,6.4956 27.2085,15.29698 32.94141,29.48047 2.35841,8.62472 1.44954,17.82242 -2.19141,25.95703 -1.80568,3.1612 -3.80041,6.10128 -6,9 -0.57331,0.77392 -1.14662,1.54784 -1.73731,2.34521 -9.95131,11.67573 -25.97066,17.82193 -39.45019,24.34229 -17.41909,8.24948 -17.41909,8.24948 -33.8125,18.3125 -1.08152,0.74766 -2.16305,1.49531 -3.27734,2.26562 -27.4453,20.47315 -44.82274,47.77816 -50.32129,81.94776 -2.18409,15.16369 -3.64665,30.48403 -4.40137,45.78662 -0.66,0 -1.32,0 -2,0 -0.21092,-0.73525 -0.42185,-1.4705 -0.63916,-2.22803 -0.98064,-3.38675 -1.98306,-6.7667 -2.98584,-10.14697 -0.49693,-1.73443 -0.49693,-1.73443 -1.00391,-3.50391 -1.95736,-6.53684 -4.24401,-12.06202 -7.93017,-17.80175 -2.27372,-3.65983 -3.92456,-7.53201 -5.56592,-11.50684 -0.3391,-0.81372 -0.67821,-1.62744 -1.02759,-2.46582 -9.58824,-23.59829 -11.09801,-48.15962 -1.31055,-71.94653 13.09125,-30.17569 40.30839,-43.69249 69.2732,-55.14869 2.79561,-1.09676 5.59527,-2.1821 8.39697,-3.26318 7.76767,-3.03126 14.72556,-6.07984 20.79297,-11.98828 0.56977,-0.5543 1.13953,-1.10859 1.72656,-1.67969 8.02428,-8.57767 9.85374,-18.62746 9.60938,-30.03125 -0.5661,-10.49376 -5.96435,-19.9861 -10.74414,-29.13672 -2.5918,-4.96471 -2.5918,-4.96471 -2.5918,-7.15234 z"
       fill="#0B0B0B"
       id="path8"
       style="fill:#fbffff;fill-opacity:1"
       inkscape:export-filename="/home/srklono/Documents/Projects/CSharp/SCPlayer/assets/path50.png"
       inkscape:export-xdpi="150"
       inkscape:export-ydpi="150" />
    <path
       d="m 553.39126,400.42364 c 1.99807,1.37472 -4.14335,0.97647 -7.0262,1.23274 -23.82091,1.15521 -47.82585,11.66335 -62.53457,30.83212 -16.0142,20.51257 -22.58443,47.70951 -18.62106,73.33252 1.29579,7.84714 4.28081,15.24838 7.18183,22.60262 -0.0885,3.16046 -4.77091,-4.27927 -5.87778,-6.40523 -11.34276,-21.56928 -14.55355,-48.45452 -4.1844,-71.0304 5.93583,-15.07568 16.46964,-28.27129 30.14733,-37.02901 14.99458,-10.03078 33.01904,-15.72272 51.13684,-14.67226 3.27959,0.1627 6.54948,0.53632 9.77801,1.1369 z"
       fill="#f6f6f6"
       id="path34"
       sodipodi:nodetypes="cccccccccc"
       style="fill:#000000;fill-opacity:1"
       inkscape:export-filename="/home/srklono/Documents/Projects/CSharp/SCPlayer/assets/path50.png"
       inkscape:export-xdpi="150"
       inkscape:export-ydpi="150" />
    <path
       d="m 628.39126,471.42364 c 2.13254,-2.62394 2.97139,9.73645 2.71909,14.71962 -0.95506,18.86339 -5.12803,39.55145 -15.86806,54.3954 -17.3939,24.04038 -60.47428,32.23135 -83.1772,29.0602 -2.39204,0.22673 -9.26765,-2.42888 -2.9568,-2.21663 21.44574,-0.28099 43.63846,-4.12097 61.78943,-16.20008 9.71817,-6.20201 18.22615,-14.35779 24.12906,-24.31262 10.31166,-16.51367 13.13439,-36.31353 13.36448,-55.44589 z"
       fill="#f6f6f6"
       id="path36"
       sodipodi:nodetypes="casccccc"
       style="fill:#000000;fill-opacity:1"
       inkscape:export-filename="/home/srklono/Documents/Projects/CSharp/SCPlayer/assets/path50.png"
       inkscape:export-xdpi="150"
       inkscape:export-ydpi="150" />
  </g>
</svg>
