<?xml version="1.0" encoding="UTF-8" standalone="no"?>
<svg
   version="1.1"
   width="1024"
   height="1024"
   id="svg152"
   sodipodi:docname="soundmist.svg"
   inkscape:version="1.1.2 (0a00cf5339, 2022-02-04)"
   xmlns:inkscape="http://www.inkscape.org/namespaces/inkscape"
   xmlns:sodipodi="http://sodipodi.sourceforge.net/DTD/sodipodi-0.dtd"
   xmlns="http://www.w3.org/2000/svg"
   xmlns:svg="http://www.w3.org/2000/svg">
  <defs
     id="defs156" />
  <sodipodi:namedview
     id="namedview154"
     pagecolor="#ffffff"
     bordercolor="#999999"
     borderopacity="1"
     inkscape:pageshadow="0"
     inkscape:pageopacity="0"
     inkscape:pagecheckerboard="0"
     showgrid="false"
     inkscape:zoom="0.17953883"
     inkscape:cx="1088.9009"
     inkscape:cy="821.54929"
     inkscape:window-width="1366"
     inkscape:window-height="696"
     inkscape:window-x="0"
     inkscape:window-y="35"
     inkscape:window-maximized="1"
     inkscape:current-layer="svg152"
     showguides="true"
     inkscape:guide-bbox="true">
    <sodipodi:guide
       position="813.89078,161.37324"
       orientation="0,-1"
       id="guide5290" />
  </sodipodi:namedview>
  <path
     d="M0 0 C1.00861084 0.00797607 2.01722168 0.01595215 3.05639648 0.02416992 C12.58387909 0.20637063 21.30240013 1.52015007 29.625 6.375 C29.625 6.705 29.625 7.035 29.625 7.375 C29.05394531 7.51035156 28.48289062 7.64570312 27.89453125 7.78515625 C15.53306714 11.0671348 5.56748367 17.31890946 -3.375 26.375 C-4.27025391 27.23738281 -4.27025391 27.23738281 -5.18359375 28.1171875 C-10.93729301 34.11480917 -13.52911438 41.76792224 -13.875 50 C-13.64078861 55.48835356 -12.1351713 59.66442375 -9.375 64.375 C-8.99730469 65.04144531 -8.61960937 65.70789063 -8.23046875 66.39453125 C2.20395472 82.37716781 25.68218634 89.30362572 42.5 95.75 C59.0804707 102.13433127 75.57983032 109.00110835 88.625 121.375 C89.79869141 122.39787109 89.79869141 122.39787109 90.99609375 123.44140625 C99.92899106 131.62110817 107.65942616 143.8748914 108.90673828 156.14697266 C109.02683203 159.16740589 109.04146258 162.16502093 109 165.1875 C108.98984863 166.25194336 108.97969727 167.31638672 108.96923828 168.41308594 C108.64791487 184.65859997 103.45640846 198.13550844 92.625 210.375 C91.91859375 211.17550781 91.2121875 211.97601563 90.484375 212.80078125 C84.18038274 219.51181936 77.11335754 224.28698281 69.421875 229.21533203 C56.69863438 237.4266626 46.74949403 246.13876158 42.87890625 261.296875 C42.39657914 263.65196183 41.97069082 265.99644077 41.625 268.375 C40.70460938 267.84390625 39.78421875 267.3128125 38.8359375 266.765625 C13.20628382 252.32825784 -17.80626856 252.14203246 -46 259.125 C-67.62636415 265.33341598 -85.99746569 275.93256145 -102.375 291.375 C-103.11363281 292.03757812 -103.85226562 292.70015625 -104.61328125 293.3828125 C-120.0809484 307.83395446 -130.11047724 328.38975935 -136.375 348.375 C-136.58672852 349.04708496 -136.79845703 349.71916992 -137.01660156 350.41162109 C-146.15061968 381.0778927 -140.71742335 416.4756914 -126.26367188 444.53222656 C-121.793886 452.76829287 -116.51569383 460.29233566 -110.375 467.375 C-109.36373047 468.58542969 -109.36373047 468.58542969 -108.33203125 469.8203125 C-87.08614863 494.51042745 -55.67156458 509.51662495 -23.375 512.375 C10.62742157 514.51020849 45.79523861 505.33558626 71.83203125 482.61328125 C74.83045912 479.93513166 77.7292309 477.16351839 80.625 474.375 C81.25792969 473.80523438 81.89085937 473.23546875 82.54296875 472.6484375 C101.20438148 455.36114304 115.32304708 426.08588082 116.54003906 400.75488281 C116.56807617 399.96952148 116.59611328 399.18416016 116.625 398.375 C116.66592773 397.33182617 116.70685547 396.28865234 116.74902344 395.21386719 C117.24789991 380.16099101 117.28178098 365.79418929 112.625 351.375 C112.2549585 350.21266846 112.2549585 350.21266846 111.87744141 349.02685547 C106.57406699 332.77814969 99.37150256 318.71168523 88.625 305.375 C87.88121094 304.43914062 87.13742187 303.50328125 86.37109375 302.5390625 C82.64482408 297.91200764 78.80400604 293.46764078 74.75 289.125 C69.0880947 282.83070039 66.93513037 277.82978989 67.21875 269.21484375 C68.26738818 261.88445954 72.14551312 255.63628229 77.88671875 251.01953125 C83.61878006 247.57702367 90.01807195 245.53010574 96.27783203 243.24560547 C110.5567191 237.94931763 125.57259308 231.86309682 132.625 217.375 C136.17698587 207.35332557 137.22268531 198.00051667 136.625 187.375 C144.34862157 190.54013668 149.23661142 199.53895112 152.59375 206.8203125 C158.33852376 221.05168386 157.81448161 235.04053614 152.625 249.375 C150.54618548 254.24335427 148.06854666 258.90312828 145.57373047 263.56787109 C137.72219999 278.46082267 137.72219999 278.46082267 138.359375 294.78515625 C141.5984703 302.00270555 146.89044995 307.69158894 152.04980469 313.57714844 C164.71525111 328.03287494 175.05742197 342.37286597 179.625 361.375 C179.95951172 362.59896484 179.95951172 362.59896484 180.30078125 363.84765625 C186.78826123 391.69527439 178.76362697 423.34228403 164.2578125 447.328125 C157.26637617 458.32436467 148.58559636 467.96355603 139.625 477.375 C138.70460938 478.35726562 138.70460938 478.35726562 137.765625 479.359375 C132.79938182 484.51480839 127.29271047 489.01586142 121.625 493.375 C121.04024902 493.82504395 120.45549805 494.27508789 119.85302734 494.73876953 C100.62997027 509.33024779 78.97769177 519.39112926 57.05761719 529.19995117 C49.42600663 532.62529135 41.89392624 536.16903246 34.4921875 540.0703125 C33.48026085 540.60189972 33.48026085 540.60189972 32.44789124 541.14422607 C23.16966408 546.11200946 14.63474081 552.2351651 6.0625 558.3125 C-3.59005773 565.11571233 -11.75907488 566.20304285 -23.375 565.375 C-35.61330214 562.65710295 -45.51552592 554.61539847 -55.44116211 547.39453125 C-72.4271196 535.04745638 -90.29961787 524.35865845 -108.75805664 514.34399414 C-137.59951174 498.66225775 -160.4450749 476.20781597 -170.6953125 444.42578125 C-178.12508629 419.07295464 -171.03844604 394.57488587 -164.74755859 369.83007812 C-163.43571891 364.65518533 -162.20351083 359.4639076 -160.98828125 354.265625 C-157.34356969 338.7937005 -153.71090017 323.58983271 -146.375 309.375 C-146.01937988 308.67584473 -145.66375977 307.97668945 -145.29736328 307.25634766 C-121.92993546 261.97615308 -81.20381637 241.02599143 -35.625 223.125 C-15.93183544 215.35593619 3.89515602 206.16756392 13.49609375 186.20703125 C16.84435049 177.80742524 16.86625554 168.64478868 13.5625 160.25 C5.77358011 143.51582198 -7.35934266 133.64238476 -21.94580078 123.12841797 C-58.74348617 96.56751581 -58.74348617 96.56751581 -63.375 76.375 C-63.8169052 72.6557463 -63.89943805 68.99309394 -63.875 65.25 C-63.87000488 64.24171143 -63.86500977 63.23342285 -63.85986328 62.19458008 C-63.45208356 44.58271447 -55.41939295 30.00962354 -43.375 17.375 C-30.60607925 6.26035239 -17.02387824 -0.24293442 0 0 Z "
     fill="#0B0B0B"
     transform="translate(518.375,117.625)"
     id="path4"
     style="fill:#020000;fill-opacity:1" />
  <path
     d="M0 0 C1.55509053 1.31765221 3.09686119 2.6511836 4.625 4 C5.46546875 4.72058594 6.3059375 5.44117188 7.171875 6.18359375 C29.33273506 25.55755777 43.72971243 52.86167948 45.79345703 82.41210938 C47.14930525 111.20828323 39.05850104 138.6593982 20.625 161 C19.71234375 162.12341797 19.71234375 162.12341797 18.78125 163.26953125 C0.7701303 184.67820308 -27.68702002 198.42501786 -55.375 201 C-84.2485614 202.78647394 -114.52378054 196.52048001 -136.9921875 177.13671875 C-137.77851563 176.43160156 -138.56484375 175.72648438 -139.375 175 C-140.32632813 174.20207031 -141.27765625 173.40414062 -142.2578125 172.58203125 C-161.77382078 155.91099537 -175.03328152 130.47791541 -178.375 105 C-178.69848565 99.80982045 -178.76493413 94.63518068 -178.75 89.4375 C-178.74945618 88.7269043 -178.74891235 88.01630859 -178.74835205 87.28417969 C-178.70990031 76.36265414 -177.92473168 66.38296515 -174.375 56 C-174.06949219 55.02933594 -174.06949219 55.02933594 -173.7578125 54.0390625 C-164.42543321 24.42892079 -143.77263719 2.35021969 -116.64453125 -12.01171875 C-79.42436294 -30.82838803 -32.7733321 -25.70658237 0 0 Z "
     fill="#0A0A0A"
     transform="translate(573.375,412)"
     id="path6"
     style="fill:#020000;fill-opacity:1" />
  <circle
     style="fill:#ffffff;stroke:none;stroke-width:173.9;stroke-linecap:round;stroke-linejoin:round;paint-order:stroke fill markers"
     id="path2798"
     cx="506.96857"
     cy="500.98672"
     r="36.316525" />
  <path
     d="M0 0 C7.08857565 3.30916308 13.7642408 7.18986593 20.4675293 11.20239258 C24.97958876 13.87945854 29.51813883 16.29691022 34.25 18.5625 C47.49979821 25.05809568 61.45850147 33.85948461 67.19140625 48.04296875 C69.54981825 56.66769282 68.64094807 65.86539111 65 74 C63.19432337 77.16119858 61.19958622 80.1012788 59 83 C58.42668945 83.7739209 57.85337891 84.5478418 57.26269531 85.34521484 C47.31137781 97.02094062 31.2920336 103.16714264 17.8125 109.6875 C0.39341013 117.93698276 0.39341013 117.93698276 -16 128 C-17.08152344 128.74765625 -18.16304688 129.4953125 -19.27734375 130.265625 C-46.72263995 150.73876813 -64.1000771 178.04378267 -69.59863281 212.21337891 C-71.78271501 227.37707369 -73.24528053 242.69741215 -74 258 C-74.66 258 -75.32 258 -76 258 C-76.21092285 257.26475098 -76.4218457 256.52950195 -76.63916016 255.77197266 C-77.61980331 252.38521537 -78.6222239 249.00526707 -79.625 245.625 C-80.12193359 243.89056641 -80.12193359 243.89056641 -80.62890625 242.12109375 C-82.58626512 235.58425377 -84.87291848 230.05906926 -88.55908203 224.31933594 C-90.83279917 220.65950659 -92.48364027 216.78733383 -94.125 212.8125 C-94.464104 211.9987793 -94.80320801 211.18505859 -95.15258789 210.34667969 C-104.74083411 186.74838964 -106.25060136 162.18706111 -96.46313477 138.40014648 C-83.37189152 108.22445633 -56.15475158 94.7076649 -27.18994141 83.25146484 C-24.39432859 82.15470139 -21.5946713 81.06935792 -18.79296875 79.98828125 C-11.02529969 76.95701599 -4.06741251 73.908441 2 68 C2.56976563 67.44570313 3.13953125 66.89140625 3.7265625 66.3203125 C11.75084079 57.7426357 13.58030428 47.69284576 13.3359375 36.2890625 C12.76984524 25.79530275 7.37158733 16.30295863 2.59179688 7.15234375 C0 2.18763496 0 2.18763496 0 0 Z "
     fill="#0B0B0B"
     transform="translate(420,233)"
     id="path8"
     style="fill:#020000;fill-opacity:1" />
  <path
     d="M0 0 C8.58 0 17.16 0 26 0 C30.50025397 11.25063494 30.50025397 11.25063494 31.98291016 15.98120117 C32.31650543 17.03897263 32.65010071 18.09674408 32.99380493 19.18656921 C33.33873993 20.29418106 33.68367493 21.40179291 34.0390625 22.54296875 C34.40599213 23.71080399 34.77292175 24.87863922 35.15097046 26.0818634 C36.3126289 29.78260976 37.4687837 33.48505025 38.625 37.1875 C39.40851636 39.68435082 40.19236743 42.18109664 40.9765625 44.67773438 C41.72686058 47.07021904 42.47687053 49.46279409 43.2265625 51.85546875 C43.57554596 52.96915329 43.92452942 54.08283783 44.28408813 55.23027039 C45.92011068 60.47046082 47.52572001 65.7119037 49 71 C52.55187811 62.75447947 55.68606266 54.43637283 58.57421875 45.9375 C58.98412552 44.74318359 59.39403229 43.54886719 59.81636047 42.31835938 C60.89174995 39.18424478 61.96409389 36.04911444 63.03442383 32.91326904 C64.55004204 28.47307426 66.0683439 24.03381118 67.59077454 19.59594727 C68.39822916 17.24191761 69.20301168 14.88696928 70.00480652 12.53100586 C70.36891129 11.46889893 70.73301605 10.40679199 71.1081543 9.3125 C71.42616501 8.38050781 71.74417572 7.44851563 72.07182312 6.48828125 C73 4 73 4 75 0 C82.92 0 90.84 0 99 0 C99 43.56 99 87.12 99 132 C92.07 132 85.14 132 78 132 C77.67 105.93 77.34 79.86 77 53 C71.11783207 71.71268266 71.11783207 71.71268266 65.24243164 90.42749023 C64.50691975 92.76293574 63.77117734 95.09830867 63.03515625 97.43359375 C62.65161987 98.65921021 62.2680835 99.88482666 61.8729248 101.14758301 C61.50759644 102.30471802 61.14226807 103.46185303 60.76586914 104.65405273 C60.44832169 105.664431 60.13077423 106.67480927 59.80360413 107.71580505 C59 110 59 110 58 111 C55.13732433 111.07325168 52.299281 111.09238205 49.4375 111.0625 C48.63119141 111.05798828 47.82488281 111.05347656 46.99414062 111.04882812 C44.99606244 111.03700518 42.99802217 111.01906914 41 111 C39.71725894 106.95699023 38.44009536 102.91226292 37.16699219 98.86621094 C36.73799719 97.50510967 36.30776002 96.14439895 35.87597656 94.78417969 C31.27083474 80.27034408 27.18656641 65.65298245 23 51 C22.67 77.73 22.34 104.46 22 132 C14.74 132 7.48 132 0 132 C0 88.44 0 44.88 0 0 Z "
     fill="#0A0A0A"
     transform="translate(586,732)"
     id="path10"
     style="fill:#020000;fill-opacity:1" />
  <path
     d="M0 0 C49.45733042 0 49.45733042 0 59.90625 9.78515625 C67.01172549 17.35730492 70.09478937 25.57681955 70.17700195 35.85717773 C70.18357315 36.53913712 70.19014435 37.2210965 70.19691467 37.92372131 C70.21659297 40.17701344 70.22830354 42.43023877 70.23828125 44.68359375 C70.24235678 45.45804399 70.2464323 46.23249424 70.25063133 47.03041267 C70.27147774 51.13672745 70.2857806 55.24300904 70.29516602 59.34936523 C70.30617384 63.55869787 70.34051167 67.76749361 70.38033772 71.97663784 C70.40669592 75.23951589 70.41487513 78.50227033 70.41844749 81.76524544 C70.42327112 83.31475476 70.43476194 84.86426017 70.45348549 86.41366386 C70.58959006 98.43216556 69.80509572 110.71127056 61.67578125 120.29296875 C54.72036017 127.37809465 49.23654502 128.85029384 39 132 C26.13 132 13.26 132 0 132 C0 88.44 0 44.88 0 0 Z "
     fill="#090909"
     id="path12"
     transform="translate(498,732)"
     style="fill:#020000;fill-opacity:1" />
  <path
     d="M0 0 C9.17139792 6.45970399 14.58639593 14.66454847 16.82421875 25.7109375 C16.92680375 27.99499182 16.97266978 30.28179352 16.98535156 32.56811523 C16.99279892 33.59105431 16.99279892 33.59105431 17.00039673 34.63465881 C17.01498151 36.88796002 17.02181767 39.1411906 17.02734375 41.39453125 C17.03158482 42.55620662 17.03158482 42.55620662 17.03591156 43.74135017 C17.05089709 47.84767115 17.06012783 51.95395712 17.06445312 56.06030273 C17.06990642 60.26953725 17.093869 64.47844313 17.12242508 68.68757534 C17.14121315 71.95045344 17.14626578 75.21325536 17.147789 78.47618294 C17.15078476 80.02567382 17.15870692 81.57516438 17.17197418 83.12460136 C17.2785667 96.54173409 16.53398697 109.8039323 7.82421875 120.7109375 C0.49314788 128.15454674 -8.9679524 131.07655937 -19.23828125 131.2109375 C-29.5196421 131.07616311 -37.65581498 127.71340071 -45.17578125 120.7109375 C-54.79401046 110.39478689 -54.65103938 98.84517006 -54.64453125 85.53515625 C-54.6516451 83.76072452 -54.65934586 81.98629506 -54.66760254 80.21186829 C-54.68100397 76.50258991 -54.68263604 72.79352422 -54.67675781 69.08422852 C-54.67087007 64.36023253 -54.701435 59.63726724 -54.74187469 54.91347027 C-54.76788499 51.25084557 -54.77061703 47.58846457 -54.76698303 43.92576027 C-54.76866227 42.18564073 -54.77818789 40.44550845 -54.79612732 38.70548058 C-54.92128939 25.06460411 -53.30071407 13.94165473 -43.4296875 3.62109375 C-31.82031476 -6.21769875 -13.13364216 -7.78115245 0 0 Z "
     fill="#0A0A0A"
     id="path14"
     mask="none"
     transform="translate(281.17578125,735.2890625)"
     style="fill:#020000;fill-opacity:1" />
  <path
     d="M0 0 C7.59 0 15.18 0 23 0 C26.72420041 8.74556124 30.09874766 17.56750005 33.30078125 26.515625 C33.72822632 27.70269043 34.15567139 28.88975586 34.59606934 30.11279297 C36.17149871 34.49068094 37.74170332 38.87044768 39.3125 43.25 C44.6028125 57.97625 44.6028125 57.97625 50 73 C50.33 48.91 50.66 24.82 51 0 C58.26 0 65.52 0 73 0 C73 43.56 73 87.12 73 132 C65.41 132 57.82 132 50 132 C49.08504761 129.42119019 49.08504761 129.42119019 48.15161133 126.7902832 C46.11744408 121.05822888 44.08168443 115.32674202 42.04488087 109.59562397 C40.81214958 106.12680957 39.58002387 102.65778275 38.34936523 99.18823242 C37.15781082 95.82900235 35.96455726 92.47038004 34.77020836 89.11214256 C34.1017549 87.23127876 33.43498416 85.3498172 32.76826477 83.46833801 C32.34820663 82.28809555 31.9281485 81.10785309 31.49536133 79.8918457 C31.13340164 78.87258499 30.77144196 77.85332428 30.39851379 76.80317688 C28.33002297 71.17803645 26.15150568 65.59391477 24 60 C23.67 83.76 23.34 107.52 23 132 C15.41 132 7.82 132 0 132 C0 88.44 0 44.88 0 0 Z "
     fill="#0C0C0C"
     transform="translate(404,732)"
     id="path16"
     style="fill:#020000;fill-opacity:1" />
  <path
     d="M0 0 C7.26 0 14.52 0 22 0 C22.01458252 3.05846191 22.02916504 6.11692383 22.04418945 9.26806641 C22.09453118 19.37433697 22.16112567 29.4804534 22.23571491 39.58657265 C22.28043825 45.71378896 22.31969027 51.84093847 22.34643555 57.96826172 C22.3724486 63.88170364 22.4128374 69.79488879 22.46318626 75.70817184 C22.47986839 77.96396058 22.49137427 80.21979374 22.49761391 82.47563553 C22.50724008 85.63588618 22.53528266 88.7954779 22.56762695 91.95556641 C22.56547432 93.35387192 22.56547432 93.35387192 22.5632782 94.78042603 C22.63779096 99.92988651 23.12104689 103.54766966 26 108 C29.50674077 111.0057778 32.60075382 111.47892215 37.07421875 111.28515625 C40.96391911 110.70919656 43.18295223 109.00848973 45.60969543 106.01313782 C47.61481963 101.66753204 47.43956014 97.71071314 47.43237305 92.97729492 C47.4425647 91.97194702 47.45275635 90.96659912 47.46325684 89.93078613 C47.49340595 86.61395712 47.50265591 83.29741684 47.51171875 79.98046875 C47.52856397 77.67831969 47.546714 75.37617983 47.56611633 73.0740509 C47.61363923 67.01932654 47.64343397 60.96463951 47.66955566 54.90979004 C47.69934948 48.72949857 47.74588391 42.54933575 47.79101562 36.36914062 C47.87707502 24.2461462 47.94286142 12.12316528 48 0 C55.26 0 62.52 0 70 0 C70.09050505 13.77834977 70.16383402 27.55650088 70.20724869 41.3350811 C70.22808951 47.73359124 70.25634364 54.13188678 70.30175781 60.53027344 C70.34533977 66.70945459 70.36916346 72.8884298 70.37950897 79.06775284 C70.38687812 81.42078008 70.40126824 83.77379653 70.42292023 86.12673569 C70.45211756 89.43222833 70.45594908 92.73687884 70.45410156 96.04248047 C70.46848267 97.00705673 70.48286377 97.971633 70.49768066 98.96543884 C70.44001792 108.55092006 67.23784851 117.54276516 60.5078125 124.5546875 C52.32629862 132.13295612 43.26855845 134.332702 32.3828125 134.2109375 C22.21550339 133.57694825 13.71026706 129.15208361 6.6875 121.8125 C0.7669907 114.14757667 -0.59520246 105.35766676 -0.45410156 95.92895508 C-0.45497772 94.36109756 -0.45497772 94.36109756 -0.45587158 92.76156616 C-0.45311109 89.34720262 -0.42211535 85.93374004 -0.390625 82.51953125 C-0.38315538 80.13629127 -0.37746586 77.7530451 -0.37347412 75.36979675 C-0.3582747 69.12754054 -0.3190419 62.88566251 -0.2746582 56.64355469 C-0.23358248 50.26177077 -0.21543689 43.87992516 -0.1953125 37.49804688 C-0.15254208 24.99850587 -0.08223877 12.4993437 0 0 Z "
     fill="#0A0A0A"
     transform="translate(315,732)"
     id="path18"
     style="fill:#020000;fill-opacity:1" />
  <path
     d="M0 0 C7.69533033 4.84021573 11.36935421 10.88307388 14.05078125 19.453125 C14.56020606 22.0991665 14.54767971 24.60037327 14.515625 27.29296875 C14.50660156 28.2778125 14.49757813 29.26265625 14.48828125 30.27734375 C14.47667969 31.025 14.46507812 31.77265625 14.453125 32.54296875 C11.91200268 32.88098027 9.37035754 33.21350254 6.828125 33.54296875 C6.11527344 33.63835938 5.40242188 33.73375 4.66796875 33.83203125 C0.56490891 34.35902976 -3.39933242 34.64763859 -7.546875 34.54296875 C-7.69382813 33.723125 -7.84078125 32.90328125 -7.9921875 32.05859375 C-9.34183615 25.29378868 -9.34183615 25.29378868 -13.171875 19.73046875 C-17.60799519 18.16961164 -21.08164295 17.9558789 -25.546875 19.54296875 C-29.40694469 22.69125254 -31.41387094 26.25726284 -31.921875 31.16796875 C-31.80999372 36.32383118 -29.94314393 39.72988499 -26.546875 43.54296875 C-22.36414904 47.13046063 -17.68675033 49.9048604 -12.9140625 52.62890625 C-0.45874034 59.76773912 10.77987682 68.16201449 14.765625 82.66796875 C16.87289922 94.25797696 16.36410259 106.50320908 10.578125 116.91796875 C4.67377956 124.21157194 -2.8501027 130.69693279 -12.55249023 131.76342773 C-24.93995801 132.42377624 -34.86482516 131.2563044 -44.796875 123.2265625 C-51.27438539 116.99485049 -54.10473701 108.49173437 -54.76171875 99.65234375 C-54.79253732 97.25534391 -54.80191377 94.92660036 -54.546875 92.54296875 C-52.92907343 90.92516718 -51.09051982 91.32024728 -48.85546875 91.2265625 C-47.91123047 91.18466797 -46.96699219 91.14277344 -45.99414062 91.09960938 C-45.00091797 91.06029297 -44.00769531 91.02097656 -42.984375 90.98046875 C-41.98728516 90.93728516 -40.99019531 90.89410156 -39.96289062 90.84960938 C-37.4910335 90.74316577 -35.0190719 90.64114947 -32.546875 90.54296875 C-32.46050781 91.42339844 -32.37414062 92.30382812 -32.28515625 93.2109375 C-31.70760883 100.63221507 -31.70760883 100.63221507 -28.046875 106.79296875 C-23.95454595 109.65759909 -21.58198611 109.87864282 -16.546875 109.54296875 C-12.70977277 108.21474106 -11.00167663 107.19485109 -8.671875 103.85546875 C-6.72393017 98.11985343 -6.72154359 93.76061096 -9.296875 88.35546875 C-12.53257487 82.2564313 -16.69205074 78.4941607 -22.484375 74.85546875 C-49.40215736 57.32331863 -49.40215736 57.32331863 -53.546875 40.54296875 C-53.95249114 37.3826527 -54.02586367 34.28907578 -53.984375 31.10546875 C-53.97535156 30.27289551 -53.96632812 29.44032227 -53.95703125 28.58251953 C-53.67513307 18.57317658 -50.74285233 11.84088562 -43.83984375 4.5234375 C-32.18441757 -5.54351492 -13.5796416 -6.77085482 0 0 Z "
     fill="#0A0A0A"
     transform="translate(197.546875,734.45703125)"
     id="path20"
     style="fill:#020000;fill-opacity:1" />
  <path
     d="M0 0 C8.01203052 4.37413558 12.10058121 11.16511581 15.375 19.5 C16.18486084 24.03522071 16.16633422 28.40732748 16 33 C13.27123692 33.33695862 10.54206837 33.66968429 7.8125 34 C7.04357422 34.09539063 6.27464844 34.19078125 5.48242188 34.2890625 C1.63071189 34.75192894 -2.11170851 35.12467468 -6 35 C-6.08636719 34.33613281 -6.17273438 33.67226563 -6.26171875 32.98828125 C-7.19214563 27.14110314 -8.1147738 23.7860503 -13 20 C-15.86608129 18.56695936 -17.81300783 18.69355845 -21 19 C-24.6578218 21.03993908 -26.66946174 22.50419262 -29 26 C-29.66157048 31.3310272 -29.69559851 36.32423996 -27.625 41.3125 C-22.7768669 46.27606484 -17.02624709 49.79306414 -11.10546875 53.3515625 C0.82020403 60.54272488 11.37604349 67.75132204 15.53979492 81.82446289 C16.46379219 86.19249454 16.27027124 90.67690409 16.3125 95.125 C16.35600586 96.61773438 16.35600586 96.61773438 16.40039062 98.140625 C16.48507189 108.11998638 13.81957167 115.96188597 6.91796875 123.24609375 C-1.8840113 131.29515494 -11.45745021 132.64561664 -23.0234375 132.3046875 C-33.05965478 131.53570425 -40.3724846 127.5526061 -47 120 C-52.87681165 111.53538777 -53.25259814 101.97762652 -53 92 C-42.605 91.505 -42.605 91.505 -32 91 C-31.608125 93.041875 -31.21625 95.08375 -30.8125 97.1875 C-29.88240928 101.08623645 -29.08140494 103.86517307 -27 107.3125 C-22.41925151 109.88917102 -18.12938043 109.85489674 -13 109 C-9.99802536 107.19881522 -8.54833634 106.09667268 -7 103 C-6.30254232 95.56807387 -6.36318867 89.08914591 -11 83 C-15.45665271 77.92176151 -21.08912134 74.68883676 -26.8125 71.25 C-36.44690121 65.42194764 -46.28725962 58.11700549 -50 47 C-50.35191406 45.94941406 -50.70382812 44.89882813 -51.06640625 43.81640625 C-53.32352285 34.5896158 -53.65020556 22.82602875 -49.3828125 14.171875 C-38.94078894 -2.22859138 -17.9233301 -8.61761575 0 0 Z "
     fill="#0A0A0A"
     id="path22"
     transform="translate(796,734)"
     style="fill:#020000;fill-opacity:1" />
  <path
     d="M0 0 C20.13 0 40.26 0 61 0 C61 6.93 61 13.86 61 21 C54.73 21 48.46 21 42 21 C42 57.63 42 94.26 42 132 C34.74 132 27.48 132 20 132 C20 95.37 20 58.74 20 21 C13.4 21 6.8 21 0 21 C0 14.07 0 7.14 0 0 Z "
     fill="#080909"
     transform="translate(820,732)"
     id="path24"
     style="fill:#020000;fill-opacity:1" />
  <path
     d="M0 0 C7.26 0 14.52 0 22 0 C22 43.56 22 87.12 22 132 C14.74 132 7.48 132 0 132 C0 88.44 0 44.88 0 0 Z "
     fill="#080808"
     transform="translate(705,732)"
     id="path28"
     style="fill:#020000;fill-opacity:1" />
  <path
     d="M0 0 C4.44976057 2.31045261 6.83557599 4.50674897 9 9 C9.38768005 12.370224 9.38768005 12.370224 9.40405273 16.26538086 C9.41091599 16.97823746 9.41777924 17.69109406 9.42485046 18.42555237 C9.44308914 20.77218785 9.43928533 23.11815288 9.43359375 25.46484375 C9.43815708 27.10242428 9.4434631 28.74000289 9.44947815 30.37757874 C9.45840354 33.80640451 9.45599285 37.23499731 9.44604492 40.66381836 C9.43455752 45.04987158 9.45476554 49.43511942 9.48396206 53.82106686 C9.50234114 57.2020831 9.50202821 60.58290697 9.49632454 63.96396065 C9.49617152 65.58063448 9.50219956 67.19732152 9.51461601 68.81394768 C9.52955685 71.07821497 9.51882822 73.34100244 9.50170898 75.60522461 C9.50154282 76.89142197 9.50137665 78.17761932 9.50120544 79.50279236 C8.78219962 84.51972244 6.60936914 87.65885905 2.75 90.875 C-0.9416365 92.38521493 -4.06503404 92.59064398 -8 92 C-11.6980849 90.35640671 -13.90434646 88.45782834 -16 85 C-17.2051939 81.39510149 -17.14023169 77.90192137 -17.16113281 74.12353516 C-17.16609772 73.4400853 -17.17106262 72.75663544 -17.17617798 72.05247498 C-17.19074841 69.7979938 -17.19759265 67.54358297 -17.203125 65.2890625 C-17.20888022 63.71731566 -17.21463791 62.14556884 -17.22039795 60.57382202 C-17.23089306 57.28033116 -17.23674561 53.9868646 -17.24023438 50.69335938 C-17.2457191 46.48119506 -17.26975274 42.26935399 -17.29820633 38.05729103 C-17.3168641 34.81099519 -17.32203995 31.56477678 -17.32357025 28.31843185 C-17.32658971 26.76594651 -17.33459435 25.21346231 -17.34775543 23.66102982 C-17.36488393 21.48552332 -17.36291973 19.31080118 -17.35644531 17.13525391 C-17.36009094 15.89933502 -17.36373657 14.66341614 -17.36749268 13.39004517 C-16.86575356 8.76160388 -15.47352233 5.33537962 -12 2.1875 C-7.98532359 -0.19621412 -4.59120475 -0.38908515 0 0 Z "
     fill="#FCFCFC"
     id="path30"
     transform="translate(266,752)"
     style="fill:#ffffff;fill-opacity:1" />
  <path
     d="M0 0 C16.27586207 0 16.27586207 0 22.25 4.8125 C25.71265738 9.14082173 26.25117803 13.82290673 26.2746582 19.22973633 C26.28895622 21.04741264 26.28895622 21.04741264 26.30354309 22.90180969 C26.30263168 24.19878281 26.30172028 25.49575592 26.30078125 26.83203125 C26.30467444 28.1919518 26.30901039 29.55187114 26.31376648 30.91178894 C26.32120847 33.75706936 26.32095284 36.60222567 26.31567383 39.44750977 C26.30989157 43.07197311 26.32678934 46.69592336 26.3500185 50.32030201 C26.36484091 53.12838145 26.36561591 55.93633988 26.36250877 58.74445152 C26.36326367 60.72344087 26.37707111 62.70241158 26.39118958 64.68135071 C26.31188423 80.23026343 26.31188423 80.23026343 21.58345032 85.61238098 C14.57585631 91.7533193 10.36200253 90 0 90 C0 60.3 0 30.6 0 0 Z "
     fill="#FDFEFE"
     transform="translate(520,753)"
     id="path32"
     style="fill:#ffffff;fill-opacity:1" />
  <path
     d="m 519,417 c 1.99807,1.37472 -4.14335,0.97647 -7.0262,1.23274 -23.82091,1.15521 -47.82585,11.66335 -62.53457,30.83212 -16.0142,20.51257 -22.58443,47.70951 -18.62106,73.33252 1.29579,7.84714 4.28081,15.24838 7.18183,22.60262 -0.0885,3.16046 -4.77091,-4.27927 -5.87778,-6.40523 -11.34276,-21.56928 -14.55355,-48.45452 -4.1844,-71.0304 5.93583,-15.07568 16.46964,-28.27129 30.14733,-37.02901 14.99458,-10.03078 33.01904,-15.72272 51.13684,-14.67226 3.27959,0.1627 6.54948,0.53632 9.77801,1.1369 z"
     fill="#f6f6f6"
     id="path34"
     sodipodi:nodetypes="cccccccccc"
     style="fill:#ffffff;fill-opacity:1" />
  <path
     d="m 594,488 c 2.13254,-2.62394 2.97139,9.73645 2.71909,14.71962 -0.95506,18.86339 -5.12803,39.55145 -15.86806,54.3954 -17.3939,24.04038 -60.47428,32.23135 -83.1772,29.0602 -2.39204,0.22673 -9.26765,-2.42888 -2.9568,-2.21663 21.44574,-0.28099 43.63846,-4.12097 61.78943,-16.20008 9.71817,-6.20201 18.22615,-14.35779 24.12906,-24.31262 C 590.94718,526.93222 593.76991,507.13236 594,488 Z"
     fill="#f6f6f6"
     id="path36"
     sodipodi:nodetypes="casccccc"
     style="fill:#ffffff;fill-opacity:1" />
  <path
     d="M0 0 C19.8 0 39.6 0 60 0 C60 6.93 60 13.86 60 21 C53.73 21 47.46 21 41 21 C41.33 20.34 41.66 19.68 42 19 C47.28 19 52.56 19 58 19 C58 13.06 58 7.12 58 1 C39.19 1 20.38 1 1 1 C1 6.94 1 12.88 1 19 C0.67 19 0.34 19 0 19 C0 12.73 0 6.46 0 0 Z "
     fill="#000000"
     transform="translate(821,732)"
     id="path50"
     style="fill:#020000;fill-opacity:1" />
  <path
     d="M0 0 C0.66 0 1.32 0 2 0 C1 4 1 4 0 8 C-0.66 8 -1.32 8 -2 8 C-1.125 1.125 -1.125 1.125 0 0 Z "
     fill="#101010"
     transform="translate(399,470)"
     id="path108" />
</svg>
