<?xml version="1.0" encoding="UTF-8" standalone="no"?>
<svg
   version="1.1"
   width="1336"
   height="720"
   id="svg152"
   sodipodi:docname="soundmist.svg"
   inkscape:version="1.1.2 (0a00cf5339, 2022-02-04)"
   inkscape:export-filename="/home/srklono/Documents/Projects/CSharp/SCPlayer/assets/soundmist.png"
   inkscape:export-xdpi="24"
   inkscape:export-ydpi="24"
   xmlns:inkscape="http://www.inkscape.org/namespaces/inkscape"
   xmlns:sodipodi="http://sodipodi.sourceforge.net/DTD/sodipodi-0.dtd"
   xmlns="http://www.w3.org/2000/svg"
   xmlns:svg="http://www.w3.org/2000/svg">
  <defs
     id="defs156" />
  <sodipodi:namedview
     id="namedview154"
     pagecolor="#ffffff"
     bordercolor="#999999"
     borderopacity="1"
     inkscape:pageshadow="0"
     inkscape:pageopacity="0"
     inkscape:pagecheckerboard="0"
     showgrid="false"
     inkscape:zoom="0.59340378"
     inkscape:cx="723.79046"
     inkscape:cy="358.10355"
     inkscape:window-width="1366"
     inkscape:window-height="696"
     inkscape:window-x="0"
     inkscape:window-y="35"
     inkscape:window-maximized="1"
     inkscape:current-layer="svg152"
     showguides="false"
     inkscape:guide-bbox="true">
    <sodipodi:guide
       position="813.89078,161.37324"
       orientation="0,-1"
       id="guide5290" />
  </sodipodi:namedview>
  <rect
     style="fill:#000000;stroke-width:179.663;stroke-linecap:round;stroke-linejoin:round;paint-order:stroke fill markers"
     id="rect883"
     width="1354.7109"
     height="737.29773"
     x="-5.5990152"
     y="-15.975215" />
  <g
     id="g1919"
     transform="matrix(0.88890726,0,0,0.88890726,74.627266,53.782884)">
    <path
       d="m 720.98344,269.89254 c 1.24495,1.05487 2.47924,2.12245 3.70262,3.20227 0.67285,0.57687 1.3457,1.15375 2.03894,1.74811 17.74125,15.51015 29.26698,37.36891 30.91915,61.026 1.08545,23.05325 -5.39178,45.0297 -20.14902,62.91483 -0.73065,0.89938 -0.73065,0.89938 -1.47605,1.81691 -14.4191,17.13907 -37.20094,28.14431 -59.36701,30.20576 -23.11521,1.43018 -47.35254,-3.58616 -65.33999,-19.10415 -0.62951,-0.56449 -1.25902,-1.12899 -1.9076,-1.71058 -0.76161,-0.6388 -1.52321,-1.2776 -2.30788,-1.93575 -15.62387,-13.34627 -26.23895,-33.70714 -28.91422,-54.10391 -0.25897,-4.15509 -0.31216,-8.29773 -0.30021,-12.45882 4.3e-4,-0.56888 8e-4,-1.13776 0.002,-1.72388 0.0307,-8.7434 0.65936,-16.73281 3.50116,-25.04506 0.24458,-0.77708 0.24458,-0.77708 0.4941,-1.56986 7.47119,-23.70489 24.00512,-41.38036 45.72298,-52.87805 29.79694,-15.064 67.1442,-10.96365 93.38143,9.61618 z"
       fill="#0A0A0A"
       id="path6"
       style="fill:#ffffff;fill-opacity:1;stroke-width:0.800567" />
    <circle
       style="fill:#000000;fill-opacity:1;stroke:none;stroke-width:139.219;stroke-linecap:round;stroke-linejoin:round;paint-order:stroke fill markers"
       id="path2798"
       cx="667.82068"
       cy="341.13232"
       r="29.073795" />
    <path
       d="m 598.19654,126.59113 c 5.67488,2.64921 11.01919,5.75597 16.38562,8.96826 3.6122,2.14317 7.24561,4.0785 11.03378,5.89226 10.60735,5.20015 21.78222,12.24625 26.37179,23.60107 1.88807,6.90467 1.16046,14.26804 -1.75436,20.78033 -1.44557,2.53075 -3.04249,4.88448 -4.8034,7.2051 -0.45898,0.61958 -0.91795,1.23915 -1.39083,1.8775 -7.96669,9.3472 -20.79124,14.26764 -31.58251,19.48762 -13.94514,6.60426 -13.94514,6.60426 -27.06915,14.66038 -0.86584,0.59855 -1.73167,1.19709 -2.62374,1.81378 -21.97178,16.39012 -35.88358,38.24959 -40.28554,65.60463 -1.7485,12.13955 -2.91938,24.4045 -3.52358,36.65524 -0.52838,0 -1.05675,0 -1.60114,0 -0.16886,-0.58862 -0.33771,-1.17723 -0.51169,-1.78369 -0.78507,-2.71132 -1.58757,-5.41719 -2.39036,-8.12332 -0.39783,-1.38853 -0.39783,-1.38853 -0.8037,-2.80511 -1.56699,-5.23318 -3.39761,-9.65645 -6.34863,-14.25149 -1.82026,-2.92994 -3.14187,-6.02988 -4.45589,-9.21199 -0.27147,-0.65144 -0.54295,-1.30288 -0.82265,-1.97405 -7.67602,-18.89201 -8.8847,-38.55498 -1.04918,-57.59799 10.48041,-24.15765 32.26954,-34.97874 55.4578,-44.15019 2.23808,-0.87803 4.47939,-1.74692 6.72234,-2.6124 6.21853,-2.42673 11.78879,-4.86731 16.64615,-9.59741 0.45614,-0.44376 0.91227,-0.88751 1.38223,-1.34471 6.42397,-6.867 7.88858,-14.91252 7.69295,-24.04201 -0.4532,-8.40095 -4.77486,-16.00021 -8.6014,-23.32588 -2.07491,-3.97458 -2.07491,-3.97458 -2.07491,-5.72593 z"
       fill="#0B0B0B"
       id="path8"
       style="fill:#ffffff;fill-opacity:1;stroke-width:0.800567" />
    <path
       d="m 731.09059,526.07383 c 6.86886,0 13.73772,0 20.81473,0 3.60275,9.00688 3.60275,9.00688 4.78972,12.79401 0.26706,0.84682 0.53413,1.69364 0.80929,2.56612 0.27614,0.88671 0.55228,1.77343 0.83679,2.68702 0.29376,0.93493 0.58751,1.86986 0.89016,2.83312 0.92999,2.96269 1.85557,5.92674 2.78119,8.8908 0.62726,1.99889 1.25478,3.99771 1.88258,5.99643 0.60067,1.91534 1.2011,3.83076 1.80128,5.74625 0.27938,0.89158 0.55877,1.78316 0.84662,2.70176 1.30974,4.19512 2.59514,8.39124 3.7754,12.62472 2.84352,-6.60109 5.35264,-13.26029 7.6648,-20.0642 0.32816,-0.95613 0.65632,-1.91226 0.99442,-2.89737 0.86092,-2.50906 1.7194,-5.01895 2.57627,-7.5294 1.21335,-3.55467 2.42886,-7.10859 3.64766,-10.6614 0.64642,-1.88456 1.29071,-3.76985 1.9326,-5.65596 0.29149,-0.85028 0.58298,-1.70057 0.8833,-2.57662 0.25459,-0.74613 0.50918,-1.49225 0.77148,-2.26098 0.74307,-1.99203 0.74307,-1.99203 2.3442,-5.1943 6.34049,0 12.68098,0 19.2136,0 0,34.87268 0,69.74536 0,105.67478 -5.54793,0 -11.09585,0 -16.8119,0 -0.26419,-20.87077 -0.52837,-41.74154 -0.80057,-63.24475 -4.70906,14.98075 -4.70906,14.98075 -9.41271,29.96319 -0.58883,1.86968 -1.17784,3.73931 -1.76707,5.60886 -0.30705,0.98118 -0.61409,1.96237 -0.93045,2.97329 -0.29247,0.92637 -0.58494,1.85273 -0.88627,2.80716 -0.25422,0.80888 -0.50843,1.61775 -0.77036,2.45114 -0.64333,1.82865 -0.64333,1.82865 -1.4439,2.62922 -2.29176,0.0587 -4.56381,0.074 -6.85485,0.05 -0.64551,-0.004 -1.29101,-0.007 -1.95607,-0.011 -1.5996,-0.009 -3.19916,-0.0238 -4.79871,-0.0391 -1.02692,-3.2367 -2.04938,-6.47478 -3.06858,-9.71391 -0.34344,-1.08965 -0.68787,-2.17899 -1.03354,-3.26794 -3.68673,-11.61929 -6.95645,-23.32146 -10.30808,-35.05215 -0.26419,21.39915 -0.52837,42.79829 -0.80057,64.84589 -5.81211,0 -11.62422,0 -17.61246,0 0,-34.87267 0,-69.74535 0,-105.67478 z"
       fill="#0A0A0A"
       id="path10"
       style="fill:#ffffff;fill-opacity:1;stroke-width:0.800567" />
    <path
       d="m 660.64073,526.07383 c 39.59388,0 39.59388,0 47.95894,7.83367 5.68841,6.06201 8.1566,12.64228 8.22242,20.87239 0.005,0.54595 0.0105,1.09191 0.0159,1.6544 0.0158,1.80391 0.0251,3.60777 0.0331,5.41173 0.003,0.62 0.007,1.24 0.01,1.87879 0.0167,3.28737 0.0281,6.57473 0.0357,9.86214 0.009,3.36985 0.0363,6.73927 0.0682,10.10897 0.0211,2.61215 0.0276,5.2242 0.0305,7.83643 0.004,1.24049 0.0131,2.48097 0.028,3.72137 0.10896,9.62161 -0.51908,19.45185 -7.02713,27.12264 -5.56828,5.67211 -9.95844,6.8507 -18.15347,9.37225 -10.3033,0 -20.60659,0 -31.2221,0 0,-34.87267 0,-69.74535 0,-105.67478 z"
       fill="#090909"
       id="path12"
       style="fill:#ffffff;fill-opacity:1;stroke-width:0.800567" />
    <path
       d="m 487.05851,528.70695 c 7.34231,5.17142 11.67738,11.73995 13.46891,20.58332 0.0821,1.82853 0.11884,3.65927 0.12899,5.48962 0.006,0.81893 0.006,0.81893 0.012,1.65441 0.0117,1.80392 0.0172,3.60778 0.0216,5.41173 0.003,0.93 0.003,0.93 0.007,1.87878 0.012,3.28738 0.0194,6.57474 0.0229,9.86214 0.004,3.36978 0.0236,6.73928 0.0464,10.10897 0.015,2.61216 0.0191,5.22425 0.0203,7.83644 0.002,1.24047 0.009,2.48094 0.0194,3.72137 0.0853,10.7413 -0.51075,21.35857 -7.4835,30.09036 -5.86901,5.95911 -13.44325,8.29837 -21.66533,8.40595 -8.23092,-0.1079 -14.74446,-2.80001 -20.7647,-8.40595 -7.70003,-8.25876 -7.58557,-17.505 -7.58036,-28.16056 -0.006,-1.42055 -0.0119,-2.84109 -0.0185,-4.26164 -0.0107,-2.96953 -0.012,-5.93888 -0.007,-8.90842 0.005,-3.78187 -0.0197,-7.56292 -0.0521,-11.34463 -0.0208,-2.93218 -0.023,-5.86416 -0.0201,-8.7964 -0.001,-1.39308 -0.009,-2.78617 -0.0233,-4.17918 -0.1002,-10.92043 1.19718,-19.82509 9.09959,-28.08738 9.29409,-7.87661 24.25402,-9.12826 34.76837,-2.89893 z"
       fill="#0A0A0A"
       id="path14"
       mask="none"
       style="fill:#ffffff;fill-opacity:1;stroke-width:0.800567" />
    <path
       d="m 585.38748,526.07383 c 6.0763,0 12.1526,0 18.41303,0 2.98147,7.0014 5.68302,14.06395 8.24646,21.22752 0.3422,0.95033 0.6844,1.90065 1.03697,2.87977 1.26123,3.5048 2.51828,7.01109 3.77581,10.51721 4.23525,11.78935 4.23525,11.78935 8.55606,23.81686 0.26418,-19.28565 0.52837,-38.5713 0.80056,-58.44136 5.81212,0 11.62423,0 17.61247,0 0,34.87268 0,69.74536 0,105.67478 -6.0763,0 -12.1526,0 -18.41303,0 -0.73248,-2.0645 -0.73248,-2.0645 -1.47976,-4.17072 -1.62849,-4.58889 -3.25825,-9.17733 -4.88884,-13.76547 -0.98689,-2.77702 -1.97329,-5.55421 -2.95851,-8.33181 -0.95392,-2.68929 -1.9092,-5.37809 -2.86535,-8.06658 -0.53515,-1.50576 -1.06894,-3.01199 -1.60269,-4.51824 -0.33629,-0.94486 -0.67257,-1.88973 -1.01905,-2.86322 -0.28977,-0.81599 -0.57954,-1.63197 -0.8781,-2.47269 -1.65596,-4.5033 -3.40001,-8.97376 -5.12243,-13.45206 -0.26419,19.02146 -0.52838,38.04293 -0.80057,57.64079 -6.0763,0 -12.1526,0 -18.41303,0 0,-34.87267 0,-69.74535 0,-105.67478 z"
       fill="#0C0C0C"
       id="path16"
       style="fill:#ffffff;fill-opacity:1;stroke-width:0.800567" />
    <path
       d="m 514.13705,526.07383 c 5.81211,0 11.62423,0 17.61246,0 0.0117,2.4485 0.0234,4.897 0.0354,7.4197 0.0403,8.09075 0.0936,16.18136 0.15333,24.27199 0.0358,4.90524 0.0672,9.81043 0.0886,14.71576 0.0208,4.73411 0.0532,9.468 0.0935,14.20198 0.0134,1.80591 0.0226,3.61185 0.0276,5.41781 0.008,2.52999 0.0302,5.05945 0.0561,7.58931 -0.002,1.11944 -0.002,1.11944 -0.003,2.26149 0.0596,4.12248 0.4465,7.01876 2.75129,10.58315 2.80738,2.40632 5.28434,2.7851 8.86565,2.62999 3.11396,-0.4611 4.89045,-1.82263 6.83322,-4.22061 1.60523,-3.47895 1.46492,-6.64664 1.45917,-10.43606 0.008,-0.80485 0.0163,-1.60969 0.0247,-2.43893 0.0241,-2.65534 0.0316,-5.31045 0.0388,-7.96589 0.0135,-1.84303 0.028,-3.68604 0.0435,-5.52905 0.038,-4.84721 0.0619,-9.69439 0.0828,-14.5417 0.0238,-4.94773 0.0611,-9.89536 0.0972,-14.84302 0.0689,-9.70527 0.12156,-19.41052 0.1673,-29.11592 5.81212,0 11.62423,0 17.61247,0 0.0725,11.03049 0.13116,22.06081 0.16592,33.09148 0.0167,5.12244 0.0393,10.2447 0.0757,15.36703 0.0349,4.94685 0.054,9.89353 0.0622,14.84049 0.006,1.88375 0.0174,3.7675 0.0347,5.65118 0.0234,2.64627 0.0265,5.29186 0.025,7.93822 0.0115,0.7722 0.023,1.54441 0.0349,2.34002 -0.0462,7.67382 -2.60971,14.87239 -7.99755,20.4859 -6.54985,6.06691 -13.80117,7.82795 -22.51594,7.73047 -8.1396,-0.50755 -14.94861,-4.04995 -20.5708,-9.92578 -4.73976,-6.13628 -5.83029,-13.17318 -5.71733,-20.7215 -7e-4,-1.25517 -7e-4,-1.25517 -0.001,-2.5357 0.002,-2.73343 0.027,-5.46613 0.0522,-8.19943 0.006,-1.90795 0.0105,-3.81589 0.0137,-5.72384 0.0122,-4.99734 0.0436,-9.99438 0.0791,-14.9916 0.0329,-5.10905 0.0474,-10.21814 0.0635,-15.32726 0.0342,-10.00671 0.0905,-20.01312 0.15636,-30.01968 z"
       fill="#0A0A0A"
       id="path18"
       style="fill:#ffffff;fill-opacity:1;stroke-width:0.800567" />
    <path
       d="m 420.10801,528.04085 c 6.16062,3.87491 9.10192,8.71263 11.24859,15.57352 0.40782,2.11833 0.3978,4.12072 0.37213,6.27632 -0.007,0.78843 -0.0145,1.57686 -0.0219,2.38919 -0.009,0.59855 -0.0186,1.1971 -0.0281,1.81378 -2.03434,0.2706 -4.0691,0.53681 -6.10432,0.80057 -0.57069,0.0764 -1.14137,0.15273 -1.72935,0.23141 -3.28477,0.4219 -6.45841,0.65295 -9.7788,0.56916 -0.11764,-0.65634 -0.23529,-1.31268 -0.3565,-1.98891 -1.08048,-5.41568 -1.08048,-5.41568 -4.14668,-9.86949 -3.55141,-1.24957 -6.3323,-1.42067 -9.90701,-0.1501 -3.09025,2.52041 -4.69692,5.37524 -5.10362,9.30658 0.0896,4.12761 1.58411,6.85439 4.30305,9.90701 3.34855,2.87203 7.09312,5.09312 10.91397,7.2739 9.97132,5.71511 18.96858,12.43529 22.15944,24.04827 1.68701,9.27857 1.27968,19.0817 -3.35238,27.41941 -4.72682,5.83901 -10.75019,11.03097 -18.51759,11.88477 -9.917,0.52866 -17.86251,-0.40599 -25.81378,-6.83433 -5.18568,-4.9889 -7.45156,-11.79621 -7.97752,-18.87273 -0.0247,-1.91895 -0.0322,-3.78327 0.172,-5.69152 1.29515,-1.29516 2.76704,-0.97887 4.55635,-1.05388 0.75592,-0.0335 1.51185,-0.0671 2.29068,-0.10163 0.79514,-0.0315 1.59028,-0.063 2.40952,-0.0954 0.79823,-0.0346 1.59647,-0.0691 2.4189,-0.10476 1.97888,-0.0852 3.95785,-0.16689 5.93701,-0.24549 0.0691,0.70484 0.13829,1.40969 0.20952,2.13589 0.46237,5.94123 0.46237,5.94123 3.39303,10.87332 3.27618,2.29333 5.17557,2.47028 9.20652,2.20156 3.07185,-1.06334 4.4393,-1.87983 6.30446,-4.55322 1.55946,-4.59175 1.56137,-8.08161 -0.50036,-12.40879 -2.59039,-4.88268 -5.92033,-7.89463 -10.55747,-10.80765 -21.54947,-14.03565 -21.54947,-14.03565 -24.8676,-27.46944 -0.32472,-2.53004 -0.38346,-5.00665 -0.35024,-7.55534 0.007,-0.66653 0.0145,-1.33306 0.0219,-2.01979 0.22568,-8.01315 2.57317,-13.40279 8.09948,-19.2609 9.33095,-8.05926 24.22531,-9.04183 35.09672,-3.62131 z"
       fill="#0A0A0A"
       id="path20"
       style="fill:#ffffff;fill-opacity:1;stroke-width:0.800567" />
    <path
       d="m 899.20956,527.67497 c 6.41416,3.50179 9.68732,8.93842 12.30871,15.61105 0.64835,3.63074 0.63352,7.13091 0.50035,10.80765 -2.18455,0.26975 -4.36943,0.53612 -6.55463,0.80056 -0.61558,0.0764 -1.23116,0.15274 -1.86539,0.23142 -3.08355,0.37055 -6.0796,0.66896 -9.19244,0.56915 -0.0691,-0.53147 -0.13828,-1.06294 -0.20952,-1.61052 -0.74487,-4.68105 -1.4835,-7.36699 -5.39445,-10.39798 -2.29448,-1.14724 -3.85313,-1.04589 -6.40453,-0.80057 -2.92833,1.63311 -4.53878,2.80534 -6.40453,5.60397 -0.52963,4.26784 -0.55687,8.26524 1.10078,12.25868 3.88125,3.97366 8.48501,6.78925 13.22498,9.63807 9.5473,5.757 17.99795,11.52796 21.33131,22.79445 0.73972,3.4969 0.58479,7.08697 0.6186,10.64796 0.0348,1.19504 0.0348,1.19504 0.0704,2.41421 0.0678,7.98915 -2.06611,14.26711 -7.59131,20.0986 -7.04657,6.44381 -14.71074,7.52495 -23.97008,7.25201 -8.03466,-0.61563 -13.88907,-3.80436 -19.19484,-9.85072 -4.70478,-6.77649 -5.00562,-14.42811 -4.8034,-22.41587 8.32189,-0.39628 8.32189,-0.39628 16.8119,-0.80056 0.31372,1.63465 0.62744,3.26931 0.95067,4.9535 0.7446,3.1212 1.38586,5.34592 3.05216,8.10574 3.6672,2.06279 7.10152,2.03536 11.20793,1.35095 2.40329,-1.44196 3.56386,-2.3243 4.8034,-4.8034 0.55837,-5.94975 0.50981,-11.13656 -3.20226,-16.01133 -3.56785,-4.06546 -8.07701,-6.65364 -12.65896,-9.40665 -7.71298,-4.66575 -15.59084,-10.51384 -18.56314,-19.41374 -0.28173,-0.84107 -0.56346,-1.68213 -0.85373,-2.54868 -1.80697,-7.38666 -2.0685,-16.80419 1.34783,-23.73242 8.35954,-13.12967 25.18541,-18.2445 39.53423,-11.34553 z"
       fill="#0A0A0A"
       id="path22"
       style="fill:#ffffff;fill-opacity:1;stroke-width:0.800567" />
    <path
       d="m 918.42316,526.07383 c 16.1154,0 32.23081,0 48.83456,0 0,5.54793 0,11.09585 0,16.8119 -5.01955,0 -10.0391,0 -15.21076,0 0,29.32475 0,58.6495 0,88.86288 -5.81212,0 -11.62423,0 -17.61247,0 0,-29.32475 0,-58.6495 0,-88.86288 -5.28374,0 -10.56748,0 -16.01133,0 0,-5.54793 0,-11.09585 0,-16.8119 z"
       fill="#080909"
       id="path24"
       style="fill:#ffffff;fill-opacity:1;stroke-width:0.800567" />
    <path
       d="m 826.35801,526.07383 c 5.81211,0 11.62423,0 17.61246,0 0,34.87268 0,69.74536 0,105.67478 -5.81211,0 -11.62422,0 -17.61246,0 0,-34.87267 0,-69.74535 0,-105.67478 z"
       fill="#080808"
       id="path28"
       style="fill:#ffffff;fill-opacity:1;stroke-width:0.800567" />
    <path
       d="m 474.90929,542.08517 c 3.56233,1.84967 5.47233,3.60795 7.2051,7.2051 0.31036,2.69809 0.31036,2.69809 0.32347,5.81642 0.005,0.57069 0.011,1.14138 0.0167,1.72936 0.0146,1.87864 0.0116,3.75674 0.007,5.63542 0.004,1.31099 0.008,2.62199 0.0127,3.93297 0.007,2.74501 0.005,5.48982 -0.003,8.23482 -0.009,3.51133 0.007,7.02201 0.0303,10.53326 0.0147,2.70672 0.0145,5.4133 0.01,8.12006 -1.2e-4,1.29425 0.005,2.58852 0.0146,3.88273 0.012,1.8127 0.003,3.62421 -0.0103,5.43687 -1.3e-4,1.02969 -2.7e-4,2.05938 -4e-4,3.12027 -0.57561,4.01638 -2.31511,6.52947 -5.40479,9.10421 -2.9554,1.20902 -5.45589,1.37348 -8.60609,0.90063 -2.96057,-1.3158 -4.72682,-2.83574 -6.40453,-5.60396 -0.96484,-2.88596 -0.91284,-5.68249 -0.92957,-8.70734 -0.004,-0.54714 -0.008,-1.09429 -0.012,-1.65802 -0.0117,-1.80486 -0.0172,-3.60967 -0.0216,-5.41456 -0.005,-1.25829 -0.009,-2.51658 -0.0138,-3.77486 -0.008,-2.63666 -0.0131,-5.2733 -0.0159,-7.90997 -0.004,-3.37212 -0.0236,-6.74398 -0.0464,-10.11602 -0.0149,-2.59887 -0.0191,-5.19769 -0.0203,-7.7966 -0.002,-1.24287 -0.009,-2.48574 -0.0194,-3.72856 -0.0137,-1.74164 -0.0121,-3.48265 -0.007,-5.22432 -0.003,-0.98943 -0.006,-1.97887 -0.009,-2.99829 0.40168,-3.70537 1.51626,-6.44829 4.29704,-8.96838 3.21402,-1.90832 5.93124,-2.06273 9.6068,-1.75124 z"
       fill="#FCFCFC"
       id="path30"
       style="fill:#000000;fill-opacity:1;stroke-width:0.800567" />
    <path
       d="m 678.2532,542.88573 c 13.02991,0 13.02991,0 17.81261,3.85273 2.77208,3.46511 3.20321,7.21343 3.222,11.54195 0.0114,1.45517 0.0114,1.45517 0.0231,2.93974 -7.3e-4,1.03832 -0.001,2.07663 -0.002,3.14641 0.003,1.0887 0.007,2.17741 0.0104,3.26611 0.006,2.27784 0.006,4.55558 0.002,6.83342 -0.005,2.90162 0.009,5.80283 0.0275,8.70439 0.0119,2.24805 0.0125,4.49601 0.01,6.74409 6e-4,1.58432 0.0117,3.16861 0.023,4.75289 -0.0635,12.44793 -0.0635,12.44793 -3.84892,16.75668 -5.61001,4.91623 -8.98348,3.51258 -17.27895,3.51258 0,-23.77683 0,-47.55365 0,-72.05099 z"
       fill="#FDFEFE"
       id="path32"
       style="fill:#000000;fill-opacity:1;stroke-width:0.800567" />
    <path
       d="m 677.45263,273.89537 c 1.59959,1.10056 -3.31703,0.78173 -5.62494,0.98689 -19.07022,0.92482 -38.28778,9.33729 -50.06309,24.68317 -12.82043,16.42167 -18.08034,38.19463 -14.90739,58.70756 1.03736,6.28216 3.42707,12.20734 5.74953,18.0949 -0.0708,2.53016 -3.81943,-3.42584 -4.70556,-5.12781 -9.08063,-17.26765 -11.65108,-38.79107 -3.34989,-56.86457 4.75203,-12.06908 13.18505,-22.63304 24.13495,-29.64418 12.00416,-8.03031 26.43394,-12.58709 40.93844,-11.74612 2.62553,0.13025 5.2433,0.42936 7.82795,0.91016 z"
       fill="#f6f6f6"
       id="path34"
       sodipodi:nodetypes="cccccccccc"
       style="fill:#000000;fill-opacity:1;stroke-width:0.800567" />
    <path
       d="m 737.49512,330.7356 c 1.70724,-2.10064 2.3788,7.79467 2.17681,11.78403 -0.76459,15.1014 -4.10533,31.66357 -12.70343,43.54714 -13.92498,19.24592 -48.41369,25.80334 -66.58889,23.26462 -1.91499,0.18152 -7.41937,-1.94448 -2.36711,-1.77456 17.16874,-0.22495 34.93549,-3.29911 49.46655,-12.96924 7.78004,-4.96512 14.59124,-11.49436 19.31692,-19.46387 8.25517,-13.22029 10.51495,-29.0714 10.69915,-44.38812 z"
       fill="#f6f6f6"
       id="path36"
       sodipodi:nodetypes="casccccc"
       style="fill:#000000;fill-opacity:1;stroke-width:0.800567" />
    <path
       d="m 919.22373,526.07383 c 15.85122,0 31.70244,0 48.03399,0 0,5.54793 0,11.09585 0,16.8119 -5.01955,0 -10.0391,0 -15.21076,0 0.26419,-0.52838 0.52837,-1.05675 0.80057,-1.60114 4.22699,0 8.45398,0 12.80906,0 0,-4.75536 0,-9.51073 0,-14.41019 -15.05866,0 -30.11731,0 -45.63229,0 0,4.75536 0,9.51073 0,14.41019 -0.26419,0 -0.52838,0 -0.80057,0 0,-5.01955 0,-10.0391 0,-15.21076 z"
       fill="#000000"
       id="path50"
       style="fill:#ffffff;fill-opacity:1;stroke-width:0.800567" />
    <path
       d="m 581.38464,316.3254 c 0.52837,0 1.05675,0 1.60113,0 -0.80056,3.20227 -0.80056,3.20227 -1.60113,6.40453 -0.52837,0 -1.05675,0 -1.60113,0 0.70049,-5.50389 0.70049,-5.50389 1.60113,-6.40453 z"
       fill="#101010"
       id="path108"
       style="fill:#ffffff;fill-opacity:1;stroke-width:0.800567" />
    <path
       d="m 676.95228,34.22576 c 0.80746,0.0064 1.61492,0.01277 2.44685,0.01935 7.62738,0.145863 14.60714,1.197631 21.26993,5.084262 0,0.264187 0,0.528374 0,0.800566 -0.45716,0.108358 -0.91433,0.216716 -1.38535,0.328358 -9.89618,2.627442 -17.87429,7.632403 -25.03334,14.882407 -0.71671,0.690395 -0.71671,0.690395 -1.4479,1.394736 -4.60622,4.801496 -6.68115,10.928322 -6.95805,17.518648 0.1875,4.393793 1.39285,7.737015 3.60255,11.508145 0.30237,0.533533 0.60474,1.067068 0.91627,1.616769 8.35345,12.795169 27.14934,18.340259 40.61312,23.501009 13.27377,5.11108 26.4826,10.60839 36.92613,20.51452 0.93962,0.81887 0.93962,0.81887 1.89822,1.65429 7.15138,6.5484 13.34011,16.35836 14.33866,26.18298 0.0961,2.41806 0.10786,4.81785 0.0747,7.23755 -0.008,0.85215 -0.0163,1.70432 -0.0247,2.5823 -0.25725,13.00561 -4.41339,23.79477 -13.08465,33.5933 -0.56553,0.64086 -1.13105,1.28172 -1.71372,1.942 -5.04676,5.37263 -10.70439,9.19546 -16.86193,13.14094 -10.1858,6.57371 -18.15075,13.54833 -21.24941,25.6834 -0.38614,1.88541 -0.72709,3.76232 -1.00384,5.66652 -0.73683,-0.42518 -1.47367,-0.85036 -2.23283,-1.28842 -20.51824,-11.55807 -45.34585,-11.70715 -67.91681,-6.11682 -17.31334,4.97025 -32.02063,13.45557 -45.13194,25.81827 -0.59132,0.53044 -1.18265,1.06088 -1.79189,1.60738 -12.3829,11.5691 -20.41221,28.0254 -25.42737,44.02491 -0.16951,0.53805 -0.33901,1.0761 -0.51365,1.63045 -7.31239,24.55039 -2.96275,52.88869 8.60844,75.34981 3.57836,6.59352 7.80391,12.61702 12.71994,18.28716 0.80959,0.96903 0.80959,0.96903 1.63553,1.95763 17.00874,19.76609 42.15821,31.77954 68.01376,34.06787 27.2212,1.70937 55.37538,-5.63552 76.21956,-23.82624 2.40044,-2.14404 4.7211,-4.3629 7.03936,-6.59529 0.5067,-0.45614 1.0134,-0.91227 1.53546,-1.38223 14.9397,-13.83963 26.24264,-37.27643 27.21692,-57.55558 0.0224,-0.62873 0.0449,-1.25746 0.068,-1.90525 0.0327,-0.83513 0.0656,-1.67026 0.0993,-2.5307 0.39939,-12.05083 0.42651,-23.55241 -3.30155,-35.09593 -0.29624,-0.93052 -0.29624,-0.93052 -0.59847,-1.87984 -4.24573,-13.00817 -10.01187,-24.26931 -18.61516,-34.94622 -0.59545,-0.74922 -1.1909,-1.49844 -1.8044,-2.27036 -2.98313,-3.70426 -6.05796,-7.26227 -9.30346,-10.73885 -4.53273,-5.039 -6.25632,-9.04256 -6.02927,-15.9394 0.83951,-5.86846 3.9442,-10.87055 8.54042,-14.56656 4.5889,-2.75596 9.71196,-4.39465 14.72331,-6.22354 11.4312,-4.24003 23.45241,-9.11246 29.09833,-20.71115 2.8436,-8.02301 3.68076,-15.51056 3.20226,-24.01699 6.18328,2.5339 10.09644,9.73805 12.78405,15.56726 4.59907,11.39316 4.17954,22.59217 0.025,34.06786 -1.66423,3.89744 -3.64774,7.62791 -5.64501,11.36234 -6.28567,11.9228 -6.28567,11.9228 -5.77558,24.99152 2.59312,5.77813 6.8297,10.33245 10.9601,15.04424 10.13954,11.57276 18.41913,23.05289 22.07579,38.26536 0.26779,0.97986 0.26779,0.97986 0.541,1.97953 5.19366,22.29386 -1.23059,47.6294 -12.84346,66.83166 -5.59711,8.80322 -12.54665,16.52004 -19.72021,24.05453 -0.73683,0.78637 -0.73683,0.78637 -1.48855,1.58862 -3.97581,4.12727 -8.38426,7.73066 -12.92164,11.22044 -0.46813,0.36029 -0.93627,0.72058 -1.41858,1.09179 -15.38934,11.68145 -32.72343,19.73586 -50.27191,27.58847 -6.10961,2.74221 -12.13954,5.57921 -18.06513,8.70244 -0.81011,0.42558 -0.81011,0.42558 -1.63659,0.85975 -7.42784,3.97704 -14.26062,8.87903 -21.12327,13.74434 -7.72751,5.44642 -14.26735,6.3169 -23.56667,5.654 -9.79758,-2.17586 -17.72497,-8.61377 -25.6711,-14.39456 -13.59839,-9.88465 -27.90651,-18.44175 -42.68372,-26.45916 -23.08951,-12.55426 -41.3789,-30.53054 -49.5849,-55.97418 -5.94803,-20.29662 -0.2747,-39.90895 4.76157,-59.71882 1.05022,-4.14284 2.03669,-8.29881 3.00956,-12.46038 2.91783,-12.38631 5.82603,-24.55802 11.6989,-35.93793 0.2847,-0.55973 0.5694,-1.11944 0.86272,-1.69612 18.70718,-36.24982 51.31115,-53.02181 87.80003,-67.35275 15.76569,-6.21965 31.63851,-13.57556 39.3247,-29.55529 2.68054,-6.72444 2.69808,-14.05974 0.0532,-20.78033 -6.23554,-13.39683 -16.74932,-21.30117 -28.42675,-29.7183 -29.459,-21.26377 -29.459,-21.26377 -33.16684,-37.42922 -0.35377,-2.97751 -0.41984,-5.909707 -0.40028,-8.906303 0.004,-0.807202 0.008,-1.614404 0.0121,-2.446067 0.32645,-14.09947 6.75716,-25.766199 16.3995,-35.881056 10.22237,-8.898015 21.09582,-14.104329 34.72457,-13.909844 z"
       fill="#0B0B0B"
       id="path4"
       style="fill:#ffffff;fill-opacity:1;stroke-width:0.800567" />
  </g>
</svg>
