<?xml version="1.0" encoding="UTF-8" standalone="no"?>
<svg
   version="1.1"
   width="738.23035"
   height="748.88153"
   id="svg152"
   sodipodi:docname="soundmist_white_nobg.svg"
   inkscape:version="1.1.2 (0a00cf5339, 2022-02-04)"
   xmlns:inkscape="http://www.inkscape.org/namespaces/inkscape"
   xmlns:sodipodi="http://sodipodi.sourceforge.net/DTD/sodipodi-0.dtd"
   xmlns="http://www.w3.org/2000/svg"
   xmlns:svg="http://www.w3.org/2000/svg">
  <defs
     id="defs156" />
  <sodipodi:namedview
     id="namedview154"
     pagecolor="#ffffff"
     bordercolor="#999999"
     borderopacity="1"
     inkscape:pageshadow="0"
     inkscape:pageopacity="0"
     inkscape:pagecheckerboard="0"
     showgrid="false"
     inkscape:zoom="0.12695313"
     inkscape:cx="35.446154"
     inkscape:cy="917.66154"
     inkscape:window-width="1366"
     inkscape:window-height="696"
     inkscape:window-x="0"
     inkscape:window-y="35"
     inkscape:window-maximized="1"
     inkscape:current-layer="svg152"
     showguides="true"
     inkscape:guide-bbox="true">
    <sodipodi:guide
       position="784.01443,-89.223135"
       orientation="0,-1"
       id="guide5290" />
  </sodipodi:namedview>
  <path
     d="m 375.60535,0.00654342 c 1.00861,0.008 2.01722,0.016 3.0564,0.0242 9.52748,0.1822 18.246,1.49597998 26.5686,6.35082998 0,0.33 0,0.66 0,1 -0.57106,0.13535 -1.14211,0.2707 -1.73047,0.41016 -12.36146,3.2819696 -22.32705,9.5337496 -31.26953,18.5898396 -0.89525,0.86238 -0.89525,0.86238 -1.80859,1.74219 -5.7537,5.99762 -8.34552,13.65073 -8.69141,21.88281 0.23421,5.48835 1.73983,9.66442 4.5,14.375 0.3777,0.66644 0.75539,1.33289 1.14453,2.01953 10.43442,15.98264 33.91266,22.9091 50.73047,29.35547 16.58047,6.384327 33.07983,13.251107 46.125,25.624997 1.17369,1.02287 1.17369,1.02287 2.37109,2.06641 8.9329,8.1797 16.66334,20.43348 17.91065,32.70556 0.12009,3.02044 0.13472,6.01805 0.0933,9.04053 -0.0101,1.06444 -0.0203,2.12889 -0.0308,3.22559 -0.32133,16.24551 -5.51283,29.72242 -16.34424,41.96191 -0.70641,0.80051 -1.41281,1.60102 -2.14063,2.42578 -6.30399,6.71104 -13.37101,11.4862 -21.0625,16.41455 -12.72324,8.21133 -22.67238,16.92343 -26.54296,32.08154 -0.48233,2.35509 -0.90822,4.69957 -1.25391,7.07813 -0.92039,-0.53109 -1.84078,-1.06219 -2.78906,-1.60938 -25.62966,-14.43736 -56.64221,-14.62359 -84.83594,-7.64062 -21.62636,6.20842 -39.99747,16.80756 -56.375,32.25 -0.73863,0.66258 -1.47727,1.32516 -2.23828,2.00781 -15.46767,14.45114 -25.4972,35.00695 -31.76172,54.99219 -0.21173,0.67208 -0.42346,1.34417 -0.6416,2.03662 -9.13402,30.66627 -3.70082,66.06407 10.75293,94.12061 4.46978,8.23606 9.74798,15.76011 15.88867,22.84277 1.01127,1.21043 1.01127,1.21043 2.04297,2.44531 21.24588,24.69012 52.66046,39.69631 84.95703,42.55469 34.00242,2.13521 69.17024,-7.03941 95.20703,-29.76172 2.99843,-2.67815 5.8972,-5.44976 8.79297,-8.23828 0.63293,-0.56977 1.26586,-1.13953 1.91797,-1.72656 18.66141,-17.2873 32.78008,-46.56256 33.99707,-71.89356 0.028,-0.78536 0.0561,-1.57072 0.085,-2.37988 0.0409,-1.04317 0.0819,-2.08635 0.12402,-3.16113 0.49888,-15.05288 0.53276,-29.41968 -4.12402,-43.83887 -0.37004,-1.16233 -0.37004,-1.16233 -0.74756,-2.34814 -5.30341,-16.24871 -12.50598,-30.31517 -23.25248,-43.65186 -0.74379,-0.93586 -1.48758,-1.87172 -2.25391,-2.83594 -3.72627,-4.62705 -7.56708,-9.07142 -11.62109,-13.41406 -5.66191,-6.2943 -7.81487,-11.29521 -7.53125,-19.91016 1.04864,-7.33038 4.92676,-13.57856 10.66797,-18.19531 5.73206,-3.44251 12.13135,-5.48942 18.39111,-7.77392 14.27889,-5.29629 29.29476,-11.38251 36.34717,-25.87061 3.55199,-10.02167 4.59769,-19.37448 4,-30 7.72362,3.16514 12.61161,12.16395 15.96875,19.44531 5.74477,14.23137 5.22073,28.22023 0.0312,42.55469 -2.07881,4.86835 -4.55645,9.52813 -7.05127,14.19287 -7.85153,14.89295 -7.85153,14.89295 -7.21436,31.21729 3.2391,7.21755 8.53108,12.90643 13.69043,18.79199 12.66545,14.45572 23.00762,28.79572 27.5752,47.79785 0.33451,1.22396 0.33451,1.22396 0.67578,2.47266 6.48748,27.84761 -1.53715,59.49462 -16.04297,83.48046 -6.99143,10.99624 -15.67221,20.63544 -24.63281,30.04688 -0.92039,0.98227 -0.92039,0.98227 -1.85938,1.98437 -4.96624,5.15544 -10.47291,9.65649 -16.14062,14.01563 -0.58475,0.45004 -1.1695,0.90009 -1.77197,1.36377 -19.22306,14.59148 -40.87534,24.65236 -62.79541,34.46118 -7.63161,3.42534 -15.16369,6.96908 -22.56543,10.87036 -1.01193,0.53159 -1.01193,0.53159 -2.0443,1.07392 -9.27823,4.96778 -17.81315,11.09094 -26.38539,17.16827 -9.65256,6.80321 -17.82157,7.89054 -29.4375,7.0625 -12.2383,-2.7179 -22.14053,-10.7596 -32.06616,-17.98047 -16.98596,-12.34707 -34.85846,-23.03587 -53.3169,-33.05054 -28.84145,-15.68173 -51.68701,-38.13617 -61.93725,-69.91821 -7.42978,-25.35283 -0.34314,-49.85089 5.94775,-74.5957 1.31184,-5.17489 2.54405,-10.36617 3.75928,-15.56446 3.64471,-15.47192 7.27738,-30.67579 14.61328,-44.89062 0.35562,-0.69916 0.71124,-1.39831 1.07764,-2.11865 23.36742,-45.2802 64.09354,-66.23036 109.67236,-84.13135 19.69316,-7.76906 39.52016,-16.95744 49.12109,-36.91797 3.34831,-8.3996 3.37022,-17.56224 0.0665,-25.95703 -7.78892,-16.73418 -20.92184,-26.60762 -35.5083,-37.12158 -36.79769,-26.560897 -36.79769,-26.560897 -41.4292,-46.753417 -0.44191,-3.71925 -0.52444,-7.38191 -0.5,-11.125 0.005,-1.00829 0.01,-2.01658 0.0151,-3.05542 0.40778,-17.61187 8.44047,-32.18496 20.48486,-44.81958 12.76892,-11.1146496 26.35112,-17.61792958 43.375,-17.37499958 z"
     fill="#0B0B0B"
     id="path4"
     style="fill:#fbffff;fill-opacity:1"
     inkscape:export-filename="/home/srklono/Documents/Projects/CSharp/SCPlayer/assets/path50.png"
     inkscape:export-xdpi="150"
     inkscape:export-ydpi="150" />
  <path
     d="m 430.60535,294.38154 c 1.55509,1.31765 3.09686,2.65118 4.625,4 0.84047,0.72059 1.68094,1.44117 2.54687,2.18359 22.16086,19.37397 36.55784,46.67809 38.62159,76.22852 1.35584,28.79617 -6.73496,56.24729 -25.16846,78.58789 -0.91266,1.12342 -0.91266,1.12342 -1.84375,2.26953 -18.01112,21.40867 -46.46827,35.15549 -74.15625,37.73047 -28.87356,1.78647 -59.14878,-4.47952 -81.61719,-23.86328 -0.78633,-0.70512 -1.57265,-1.41024 -2.38281,-2.13672 -0.95133,-0.79793 -1.90266,-1.59586 -2.88281,-2.41797 -19.51601,-16.67103 -32.77547,-42.10411 -36.11719,-67.58203 -0.32349,-5.19018 -0.38993,-10.36482 -0.375,-15.5625 5.4e-4,-0.7106 0.001,-1.42119 0.002,-2.15332 0.0384,-10.92153 0.82362,-20.90122 4.37335,-31.28418 0.30551,-0.97066 0.30551,-0.97066 0.61719,-1.96094 9.33238,-29.61014 29.98517,-51.68884 57.11328,-66.05078 37.21982,-18.81667 83.87085,-13.69486 116.64418,12.01172 z"
     fill="#0A0A0A"
     id="path6"
     style="fill:#fbffff;fill-opacity:1"
     inkscape:export-filename="/home/srklono/Documents/Projects/CSharp/SCPlayer/assets/path50.png"
     inkscape:export-xdpi="150"
     inkscape:export-ydpi="150" />
  <circle
     style="fill:#000000;fill-opacity:1;stroke:none;stroke-width:173.9;stroke-linecap:round;stroke-linejoin:round;paint-order:stroke fill markers"
     id="path2798"
     cx="364.19891"
     cy="383.36826"
     r="36.316525"
     inkscape:export-filename="/home/srklono/Documents/Projects/CSharp/SCPlayer/assets/path50.png"
     inkscape:export-xdpi="150"
     inkscape:export-ydpi="150" />
  <path
     d="m 277.23035,115.38154 c 7.08858,3.30916 13.76424,7.18987 20.46753,11.20239 4.51206,2.67707 9.05061,5.09452 13.78247,7.36011 13.2498,6.4956 27.2085,15.29698 32.94141,29.48047 2.35841,8.62472 1.44954,17.82242 -2.19141,25.95703 -1.80568,3.1612 -3.80041,6.10128 -6,9 -0.57331,0.77392 -1.14662,1.54784 -1.73731,2.34521 -9.95131,11.67573 -25.97066,17.82193 -39.45019,24.34229 -17.41909,8.24948 -17.41909,8.24948 -33.8125,18.3125 -1.08152,0.74766 -2.16305,1.49531 -3.27734,2.26562 -27.4453,20.47315 -44.82274,47.77816 -50.32129,81.94776 -2.18409,15.16369 -3.64665,30.48403 -4.40137,45.78662 -0.66,0 -1.32,0 -2,0 -0.21092,-0.73525 -0.42185,-1.4705 -0.63916,-2.22803 -0.98064,-3.38675 -1.98306,-6.7667 -2.98584,-10.14697 -0.49693,-1.73443 -0.49693,-1.73443 -1.00391,-3.50391 -1.95736,-6.53684 -4.24401,-12.06202 -7.93017,-17.80175 -2.27372,-3.65983 -3.92456,-7.53201 -5.56592,-11.50684 -0.3391,-0.81372 -0.67821,-1.62744 -1.02759,-2.46582 -9.58824,-23.59829 -11.09801,-48.15962 -1.31055,-71.94653 13.09125,-30.17569 40.30839,-43.69249 69.2732,-55.14869 2.79561,-1.09676 5.59527,-2.1821 8.39697,-3.26318 7.76767,-3.03126 14.72556,-6.07984 20.79297,-11.98828 0.56977,-0.5543 1.13953,-1.10859 1.72656,-1.67969 8.02428,-8.57767 9.85374,-18.62746 9.60938,-30.03125 -0.5661,-10.49376 -5.96435,-19.9861 -10.74414,-29.13672 -2.5918,-4.96471 -2.5918,-4.96471 -2.5918,-7.15234 z"
     fill="#0B0B0B"
     id="path8"
     style="fill:#fbffff;fill-opacity:1"
     inkscape:export-filename="/home/srklono/Documents/Projects/CSharp/SCPlayer/assets/path50.png"
     inkscape:export-xdpi="150"
     inkscape:export-ydpi="150" />
  <path
     d="m 443.23035,614.38154 c 8.58,0 17.16,0 26,0 4.50025,11.25064 4.50025,11.25064 5.98291,15.9812 0.33359,1.05777 0.66719,2.11554 1.01089,3.20537 0.34494,1.10761 0.68987,2.21522 1.04526,3.3564 0.36693,1.16783 0.73386,2.33567 1.11191,3.53889 1.16166,3.70075 2.31781,7.40319 3.47403,11.10564 0.78352,2.49685 1.56737,4.9936 2.35156,7.49023 0.7503,2.39249 1.50031,4.78506 2.25,7.17774 0.34899,1.11368 0.69797,2.22737 1.05753,3.3748 1.63602,5.24019 3.24163,10.48163 4.71591,15.76973 3.55188,-8.24552 6.68606,-16.56363 9.57422,-25.0625 0.40991,-1.19432 0.81981,-2.38863 1.24214,-3.61914 1.07539,-3.13411 2.14773,-6.26925 3.21806,-9.40509 1.51562,-4.4402 3.03392,-8.87946 4.55635,-13.31732 0.80746,-2.35403 1.61224,-4.70898 2.41404,-7.06494 0.3641,-1.06211 0.72821,-2.12422 1.10334,-3.21851 0.31801,-0.93199 0.63603,-1.86398 0.96367,-2.82422 0.92818,-2.48828 0.92818,-2.48828 2.92818,-6.48828 7.92,0 15.84,0 24,0 0,43.56 0,87.12 0,132 -6.93,0 -13.86,0 -21,0 -0.33,-26.07 -0.66,-52.14 -1,-79 -5.88217,18.71268 -5.88217,18.71268 -11.75757,37.42749 -0.73551,2.33545 -1.47125,4.67082 -2.20727,7.0061 -0.38354,1.22562 -0.76708,2.45124 -1.16224,3.71399 -0.36532,1.15714 -0.73065,2.31427 -1.10705,3.50647 -0.31755,1.01038 -0.6351,2.02076 -0.96227,3.06176 -0.8036,2.28419 -0.8036,2.28419 -1.8036,3.28419 -2.86268,0.0733 -5.70072,0.0924 -8.5625,0.0625 -0.80631,-0.005 -1.61262,-0.009 -2.44336,-0.0137 -1.99808,-0.0118 -3.99612,-0.0297 -5.99414,-0.0488 -1.28274,-4.04301 -2.5599,-8.08774 -3.83301,-12.13379 -0.42899,-1.3611 -0.85923,-2.72181 -1.29101,-4.08203 -4.60515,-14.51384 -8.68941,-29.1312 -12.87598,-43.78418 -0.33,26.73 -0.66,53.46 -1,81 -7.26,0 -14.52,0 -22,0 0,-43.56 0,-87.12 0,-132 z"
     fill="#0A0A0A"
     id="path10"
     style="fill:#fbffff;fill-opacity:1"
     inkscape:export-filename="/home/srklono/Documents/Projects/CSharp/SCPlayer/assets/path50.png"
     inkscape:export-xdpi="150"
     inkscape:export-ydpi="150" />
  <path
     d="m 355.23035,614.38154 c 49.45733,0 49.45733,0 59.90625,9.78516 7.10547,7.57215 10.18854,15.79166 10.27075,26.07202 0.007,0.68196 0.0131,1.36392 0.0199,2.06654 0.0197,2.25329 0.0314,4.50652 0.0414,6.75987 0.004,0.77445 0.008,1.5489 0.0123,2.34682 0.0208,4.10632 0.0352,8.2126 0.0445,12.31896 0.011,4.20933 0.0453,8.41812 0.0852,12.62727 0.0264,3.26288 0.0345,6.52563 0.0381,9.78861 0.005,1.54951 0.0163,3.09901 0.035,4.64841 0.13611,12.01851 -0.64838,24.29761 -8.7777,33.87931 -6.95542,7.08512 -12.43924,8.55732 -22.67578,11.70703 -12.87,0 -25.74,0 -39,0 0,-43.56 0,-87.12 0,-132 z"
     fill="#090909"
     id="path12"
     style="fill:#fbffff;fill-opacity:1"
     inkscape:export-filename="/home/srklono/Documents/Projects/CSharp/SCPlayer/assets/path50.png"
     inkscape:export-xdpi="150"
     inkscape:export-ydpi="150" />
  <path
     d="m 138.40613,617.6706 c 9.1714,6.4597 14.5864,14.66455 16.82422,25.71094 0.10258,2.28405 0.14845,4.57085 0.16113,6.85718 0.007,1.02293 0.007,1.02293 0.0151,2.06654 0.0146,2.2533 0.0214,4.50653 0.0269,6.75987 0.004,1.16168 0.004,1.16168 0.009,2.34682 0.015,4.10632 0.0242,8.21261 0.0285,12.31895 0.006,4.20924 0.0294,8.41814 0.058,12.62728 0.0188,3.26287 0.0238,6.52567 0.0254,9.7886 0.003,1.54949 0.0109,3.09898 0.0242,4.64842 0.10659,13.41713 -0.63798,26.67933 -9.34775,37.58634 -7.33107,7.44361 -16.79217,10.36562 -27.0625,10.5 -10.28136,-0.13478 -18.41754,-3.49754 -25.937496,-10.5 -9.61823,-10.31615 -9.47526,-21.86577 -9.46875,-35.17578 -0.007,-1.77444 -0.0148,-3.54886 -0.0231,-5.32329 -0.0134,-3.70928 -0.015,-7.41835 -0.009,-11.12764 0.006,-4.724 -0.0247,-9.44696 -0.0651,-14.17076 -0.026,-3.66262 -0.0287,-7.325 -0.0251,-10.98771 -0.002,-1.74012 -0.0112,-3.48025 -0.0291,-5.22028 -0.12516,-13.64088 1.49541,-24.76383 11.36644,-35.08439 11.609386,-9.83879 30.296056,-11.40224 43.429696,-3.62109 z"
     fill="#0A0A0A"
     id="path14"
     mask="none"
     style="fill:#fbffff;fill-opacity:1"
     inkscape:export-filename="/home/srklono/Documents/Projects/CSharp/SCPlayer/assets/path50.png"
     inkscape:export-xdpi="150"
     inkscape:export-ydpi="150" />
  <path
     d="m 261.23035,614.38154 c 7.59,0 15.18,0 23,0 3.7242,8.74556 7.09875,17.5675 10.30078,26.51563 0.42745,1.18706 0.85489,2.37413 1.29529,3.59716 1.57543,4.37789 3.14563,8.75766 4.71643,13.13721 5.29031,14.72625 5.29031,14.72625 10.6875,29.75 0.33,-24.09 0.66,-48.18 1,-73 7.26,0 14.52,0 22,0 0,43.56 0,87.12 0,132 -7.59,0 -15.18,0 -23,0 -0.91495,-2.57881 -0.91495,-2.57881 -1.84839,-5.20972 -2.03417,-5.73205 -4.06993,-11.46354 -6.10673,-17.19466 -1.23273,-3.46881 -2.46486,-6.93784 -3.69552,-10.40739 -1.19155,-3.35923 -2.3848,-6.71785 -3.57915,-10.07609 -0.66846,-1.88086 -1.33523,-3.76232 -2.00195,-5.6438 -0.42005,-1.18024 -0.84011,-2.36049 -1.2729,-3.57649 -0.36196,-1.01927 -0.72392,-2.03853 -1.09685,-3.08867 -2.06849,-5.62514 -4.247,-11.20926 -6.39851,-16.80318 -0.33,23.76 -0.66,47.52 -1,72 -7.59,0 -15.18,0 -23,0 0,-43.56 0,-87.12 0,-132 z"
     fill="#0C0C0C"
     id="path16"
     style="fill:#fbffff;fill-opacity:1"
     inkscape:export-filename="/home/srklono/Documents/Projects/CSharp/SCPlayer/assets/path50.png"
     inkscape:export-xdpi="150"
     inkscape:export-ydpi="150" />
  <path
     d="m 172.23035,614.38154 c 7.26,0 14.52,0 22,0 0.0146,3.05846 0.0292,6.11692 0.0442,9.26807 0.0503,10.10627 0.11694,20.21238 0.19153,30.3185 0.0447,6.12722 0.084,12.25437 0.11072,18.38169 0.026,5.91344 0.0664,11.82663 0.11675,17.73991 0.0167,2.25579 0.0282,4.51162 0.0344,6.76747 0.01,3.16025 0.0377,6.31984 0.07,9.47993 -0.002,1.3983 -0.002,1.3983 -0.004,2.82486 0.0745,5.14946 0.55772,8.76724 3.43667,13.21957 3.50674,3.00578 6.60075,3.47892 11.07422,3.28516 3.8897,-0.57596 6.10873,-2.27667 8.53547,-5.27202 2.00513,-4.34561 1.82987,-8.30243 1.82268,-13.03584 0.0102,-1.00535 0.0204,-2.0107 0.0309,-3.04651 0.0301,-3.31683 0.0394,-6.63337 0.0485,-9.95032 0.0168,-2.30215 0.035,-4.60429 0.0544,-6.90642 0.0475,-6.05472 0.0773,-12.10941 0.10344,-18.16426 0.0298,-6.18029 0.0763,-12.36045 0.12146,-18.54065 0.0861,-12.12299 0.15185,-24.24597 0.20899,-36.36914 7.26,0 14.52,0 22,0 0.0905,13.77835 0.16383,27.5565 0.20725,41.33508 0.0208,6.39851 0.0491,12.79681 0.0945,19.19519 0.0436,6.17919 0.0674,12.35816 0.0778,18.53748 0.007,2.35303 0.0218,4.70605 0.0434,7.05899 0.0292,3.30549 0.033,6.61014 0.0312,9.91574 0.0144,0.96458 0.0288,1.92915 0.0436,2.92296 -0.0577,9.58548 -3.25983,18.57733 -9.98987,25.58925 -8.18151,7.57827 -17.23925,9.77801 -28.125,9.65625 -10.16731,-0.63399 -18.67254,-5.05886 -25.69531,-12.39844 -5.92051,-7.66492 -7.2827,-16.45483 -7.1416,-25.88354 -8.8e-4,-1.56786 -8.8e-4,-1.56786 -0.002,-3.16739 0.003,-3.41437 0.0338,-6.82783 0.0653,-10.24204 0.007,-2.38324 0.0131,-4.76648 0.0171,-7.14973 0.0152,-6.24226 0.0544,-12.48414 0.0988,-18.72624 0.0411,-6.38179 0.0592,-12.76364 0.0794,-19.14551 0.0428,-12.49954 0.11307,-24.99871 0.19531,-37.49805 z"
     fill="#0A0A0A"
     id="path18"
     style="fill:#fbffff;fill-opacity:1"
     inkscape:export-filename="/home/srklono/Documents/Projects/CSharp/SCPlayer/assets/path50.png"
     inkscape:export-xdpi="150"
     inkscape:export-ydpi="150" />
  <path
     d="m 54.777224,616.83857 c 7.69533,4.84022 11.36935,10.88307 14.05078,19.45312 0.50943,2.64605 0.4969,5.14725 0.46484,7.83985 -0.009,0.98484 -0.018,1.96969 -0.0273,2.98437 -0.0116,0.74766 -0.0232,1.49532 -0.0352,2.26563 -2.54112,0.33801 -5.08276,0.67053 -7.625,1 -0.71285,0.0954 -1.4257,0.19078 -2.16015,0.28906 -4.10306,0.527 -8.0673,0.81561 -12.21485,0.71094 -0.14695,-0.81985 -0.2939,-1.63969 -0.44531,-2.48438 -1.34965,-6.7648 -1.34965,-6.7648 -5.17969,-12.32812 -4.43612,-1.56086 -7.90976,-1.77459 -12.375,-0.1875 -3.86007,3.14828 -5.86699,6.71429 -6.375,11.625 0.11189,5.15586 1.97874,8.56191 5.375,12.375 4.18273,3.58749 8.86013,6.36189 13.63282,9.08594 12.45532,7.13883 23.69394,15.5331 27.67968,30.03906 2.10728,11.59001 1.59848,23.83524 -4.1875,34.25 -5.90434,7.2936 -13.42822,13.77896 -23.13061,14.84546 -12.38747,0.66035 -22.31234,-0.50713 -32.24439,-8.53687 -6.47751,-6.23171 -9.30786002,-14.73483 -9.96484002,-23.57422 -0.0308,-2.397 -0.0402,-4.72574 0.21484,-7.10937 1.61781002,-1.6178 3.45636002,-1.22272 5.69141002,-1.31641 0.94424,-0.0419 1.88848,-0.0838 2.86133,-0.12695 0.99322,-0.0393 1.98644,-0.0786 3.00976,-0.11914 0.99709,-0.0432 1.99418,-0.0864 3.02149,-0.13086 2.47186,-0.10644 4.94382,-0.20846 7.41601,-0.30664 0.0864,0.88043 0.17274,1.76086 0.26172,2.66797 0.57755,7.42128 0.57755,7.42128 4.23828,13.58203 4.09233,2.86463 6.46489,3.08567 11.5,2.75 3.83711,-1.32823 5.5452,-2.34812 7.875,-5.6875 1.94795,-5.73562 1.95034,-10.09486 -0.625,-15.5 -3.2357,-6.09904 -7.39517,-9.86131 -13.1875,-13.5 -26.91778,-17.53215 -26.91778,-17.53215 -31.0625,-34.3125 -0.40561002,-3.16032 -0.47898002,-6.25389 -0.43750002,-9.4375 0.009,-0.83257 0.018,-1.66515 0.0273,-2.52295 C 1.102044,635.41175 4.034324,628.67946 10.937334,621.36201 c 11.65543,-10.06695 30.26021,-11.29429 43.83985,-4.52344 z"
     fill="#0A0A0A"
     id="path20"
     style="fill:#fbffff;fill-opacity:1"
     inkscape:export-filename="/home/srklono/Documents/Projects/CSharp/SCPlayer/assets/path50.png"
     inkscape:export-xdpi="150"
     inkscape:export-ydpi="150" />
  <path
     d="m 653.23035,616.38154 c 8.01203,4.37414 12.10058,11.16512 15.375,19.5 0.80986,4.53522 0.79133,8.90733 0.625,13.5 -2.72876,0.33696 -5.45793,0.66968 -8.1875,1 -0.76893,0.0954 -1.53785,0.19078 -2.33008,0.28906 -3.85171,0.46287 -7.59413,0.83562 -11.48242,0.71094 -0.0864,-0.66387 -0.17273,-1.32773 -0.26172,-2.01172 -0.93043,-5.84718 -1.85305,-9.20223 -6.73828,-12.98828 -2.86608,-1.43304 -4.81301,-1.30644 -8,-1 -3.65782,2.03994 -5.66946,3.50419 -8,7 -0.66157,5.33103 -0.6956,10.32424 1.375,15.3125 4.84813,4.96357 10.59875,8.48056 16.51953,12.03906 11.92567,7.19117 22.48151,14.39976 26.64526,28.4729 0.924,4.36804 0.73048,8.85244 0.77271,13.30054 0.0435,1.49273 0.0435,1.49273 0.0879,3.01563 0.0847,9.97936 -2.58082,17.82126 -9.48242,25.10546 -8.80198,8.04906 -18.37542,9.39953 -29.94141,9.0586 -10.03622,-0.76899 -17.34905,-4.75208 -23.97656,-12.30469 -5.87681,-8.46461 -6.2526,-18.02237 -6,-28 10.395,-0.495 10.395,-0.495 21,-1 0.39187,2.04188 0.78375,4.08375 1.1875,6.1875 0.93009,3.89874 1.73109,6.67767 3.8125,10.125 4.58075,2.57667 8.87062,2.5424 14,1.6875 3.00197,-1.80118 4.45166,-2.90333 6,-6 0.69746,-7.43193 0.63681,-13.91085 -4,-20 -4.45665,-5.07824 -10.08912,-8.31116 -15.8125,-11.75 -9.6344,-5.82805 -19.47476,-13.133 -23.1875,-24.25 -0.35191,-1.05059 -0.70383,-2.10117 -1.06641,-3.18359 -2.25711,-9.22679 -2.5838,-20.99038 1.6836,-29.64453 10.44202,-16.40047 31.45948,-22.7895 49.38281,-14.17188 z"
     fill="#0A0A0A"
     id="path22"
     style="fill:#fbffff;fill-opacity:1"
     inkscape:export-filename="/home/srklono/Documents/Projects/CSharp/SCPlayer/assets/path50.png"
     inkscape:export-xdpi="150"
     inkscape:export-ydpi="150" />
  <path
     d="m 677.23035,614.38154 c 20.13,0 40.26,0 61,0 0,6.93 0,13.86 0,21 -6.27,0 -12.54,0 -19,0 0,36.63 0,73.26 0,111 -7.26,0 -14.52,0 -22,0 0,-36.63 0,-73.26 0,-111 -6.6,0 -13.2,0 -20,0 0,-6.93 0,-13.86 0,-21 z"
     fill="#080909"
     id="path24"
     style="fill:#fbffff;fill-opacity:1"
     inkscape:export-filename="/home/srklono/Documents/Projects/CSharp/SCPlayer/assets/path50.png"
     inkscape:export-xdpi="150"
     inkscape:export-ydpi="150" />
  <path
     d="m 562.23035,614.38154 c 7.26,0 14.52,0 22,0 0,43.56 0,87.12 0,132 -7.26,0 -14.52,0 -22,0 0,-43.56 0,-87.12 0,-132 z"
     fill="#080808"
     id="path28"
     style="fill:#fbffff;fill-opacity:1"
     inkscape:export-filename="/home/srklono/Documents/Projects/CSharp/SCPlayer/assets/path50.png"
     inkscape:export-xdpi="150"
     inkscape:export-ydpi="150" />
  <path
     d="m 123.23035,634.38154 c 4.44976,2.31045 6.83558,4.50675 9,9 0.38768,3.37022 0.38768,3.37022 0.40405,7.26538 0.007,0.71286 0.0137,1.42571 0.0208,2.16017 0.0182,2.34664 0.0144,4.6926 0.009,7.03929 0.005,1.63758 0.01,3.27516 0.0159,4.91274 0.009,3.42883 0.007,6.85742 -0.003,10.28624 -0.0115,4.38605 0.009,8.7713 0.0379,13.15725 0.0184,3.38101 0.0181,6.76184 0.0124,10.14289 -1.5e-4,1.61667 0.006,3.23336 0.0183,4.84999 0.0149,2.26427 0.004,4.52705 -0.0129,6.79128 -1.7e-4,1.28619 -3.3e-4,2.57239 -5e-4,3.89756 -0.71901,5.01693 -2.89184,8.15607 -6.75121,11.37221 -3.69164,1.51022 -6.81503,1.71564 -10.75,1.125 -3.69809,-1.64359 -5.90435,-3.54217 -8,-7 -1.20519,-3.6049 -1.14023,-7.09808 -1.16113,-10.87647 -0.005,-0.68345 -0.01,-1.3669 -0.0151,-2.07106 -0.0146,-2.25448 -0.0214,-4.50889 -0.0269,-6.76341 -0.006,-1.57174 -0.0115,-3.14349 -0.0173,-4.71524 -0.0105,-3.29349 -0.0163,-6.58696 -0.0198,-9.88046 -0.005,-4.21217 -0.0295,-8.42401 -0.058,-12.63607 -0.0187,-3.24629 -0.0238,-6.49251 -0.0254,-9.73886 -0.003,-1.55248 -0.011,-3.10497 -0.0242,-4.6574 -0.0171,-2.17551 -0.0152,-4.35023 -0.009,-6.52578 -0.004,-1.23592 -0.007,-2.47183 -0.011,-3.7452 0.50175,-4.62845 1.89398,-8.05467 5.3675,-11.20255 4.01468,-2.38371 7.4088,-2.57659 12,-2.1875 z"
     fill="#FCFCFC"
     id="path30"
     style="fill:#000000;fill-opacity:1"
     inkscape:export-filename="/home/srklono/Documents/Projects/CSharp/SCPlayer/assets/path50.png"
     inkscape:export-xdpi="150"
     inkscape:export-ydpi="150" />
  <path
     d="m 377.23035,635.38154 c 16.27586,0 16.27586,0 22.25,4.8125 3.46266,4.32832 4.00118,9.01041 4.02466,14.41724 0.0143,1.81767 0.0143,1.81767 0.0289,3.67207 -9.1e-4,1.29697 -0.002,2.59395 -0.003,3.93022 0.004,1.35992 0.008,2.71984 0.013,4.07976 0.007,2.84528 0.007,5.69044 0.002,8.53572 -0.006,3.62446 0.0111,7.24841 0.0343,10.87279 0.0148,2.80808 0.0156,5.61604 0.0125,8.42415 7.5e-4,1.97899 0.0146,3.95796 0.0287,5.9369 -0.0793,15.54891 -0.0793,15.54891 -4.80774,20.93103 -7.00755,6.14094 -11.22141,4.38762 -21.58341,4.38762 0,-29.7 0,-59.4 0,-90 z"
     fill="#FDFEFE"
     id="path32"
     style="fill:#000000;fill-opacity:1"
     inkscape:export-filename="/home/srklono/Documents/Projects/CSharp/SCPlayer/assets/path50.png"
     inkscape:export-xdpi="150"
     inkscape:export-ydpi="150" />
  <path
     d="m 376.23035,299.38154 c 1.99807,1.37472 -4.14335,0.97647 -7.0262,1.23274 -23.82091,1.15521 -47.82585,11.66335 -62.53457,30.83212 -16.0142,20.51257 -22.58443,47.70951 -18.62106,73.33252 1.29579,7.84714 4.28081,15.24838 7.18183,22.60262 -0.0885,3.16046 -4.77091,-4.27927 -5.87778,-6.40523 -11.34276,-21.56928 -14.55355,-48.45452 -4.1844,-71.0304 5.93583,-15.07568 16.46964,-28.27129 30.14733,-37.02901 14.99458,-10.03078 33.01904,-15.72272 51.13684,-14.67226 3.27959,0.1627 6.54948,0.53632 9.77801,1.1369 z"
     fill="#f6f6f6"
     id="path34"
     sodipodi:nodetypes="cccccccccc"
     style="fill:#000000;fill-opacity:1"
     inkscape:export-filename="/home/srklono/Documents/Projects/CSharp/SCPlayer/assets/path50.png"
     inkscape:export-xdpi="150"
     inkscape:export-ydpi="150" />
  <path
     d="m 451.23035,370.38154 c 2.13254,-2.62394 2.97139,9.73645 2.71909,14.71962 -0.95506,18.86339 -5.12803,39.55145 -15.86806,54.3954 -17.3939,24.04038 -60.47428,32.23135 -83.1772,29.0602 -2.39204,0.22673 -9.26765,-2.42888 -2.9568,-2.21663 21.44574,-0.28099 43.63846,-4.12097 61.78943,-16.20008 9.71817,-6.20201 18.22615,-14.35779 24.12906,-24.31262 10.31166,-16.51367 13.13439,-36.31353 13.36448,-55.44589 z"
     fill="#f6f6f6"
     id="path36"
     sodipodi:nodetypes="casccccc"
     style="fill:#000000;fill-opacity:1"
     inkscape:export-filename="/home/srklono/Documents/Projects/CSharp/SCPlayer/assets/path50.png"
     inkscape:export-xdpi="150"
     inkscape:export-ydpi="150" />
  <path
     d="m 678.23035,614.38154 c 19.8,0 39.6,0 60,0 0,6.93 0,13.86 0,21 -6.27,0 -12.54,0 -19,0 0.33,-0.66 0.66,-1.32 1,-2 5.28,0 10.56,0 16,0 0,-5.94 0,-11.88 0,-18 -18.81,0 -37.62,0 -57,0 0,5.94 0,11.88 0,18 -0.33,0 -0.66,0 -1,0 0,-6.27 0,-12.54 0,-19 z"
     fill="#000000"
     id="path50"
     style="fill:#fbffff;fill-opacity:1"
     inkscape:export-filename="/home/srklono/Documents/Projects/CSharp/SCPlayer/assets/path50.png"
     inkscape:export-xdpi="150"
     inkscape:export-ydpi="150" />
</svg>
